<?xml  version="1.0" encoding="UTF-8"?>
<!DOCTYPE svg PUBLIC "-//W3C//DTD SVG 1.0//EN" "http://www.w3.org/TR/2001/REC-SVG-20010904/DTD/svg10.dtd" >
<svg xmlns="http://www.w3.org/2000/svg" >
<metadata>
<version>1.0</version>
<id><![CDATA[Futura BT W01 Heavy]]></id>
<vendor>Monotype Imaging Inc.</vendor>
<credits>
<name>Fonts.com WebFonts</name>
<URL>http://webfonts.fonts.com</URL>
<role>Home of the Web fonts</role>
</credits>
<license>
<URL>http://webfonts.fonts.com/Legal</URL>
</license>
<copyright><![CDATA[Copyright 1990-2003 Bitstream Inc. All rights reserved.]]></copyright>
<trademark></trademark>
<licensee>
<name></name>
</licensee>
</metadata>
<defs >
<font horiz-adv-x="1217" id="a5f12249-079e-42a0-95bc-27ad0164deb9">
<font-face font-family="" panose-1="2 11 7 2 2 2 4 2 2 4" ascent="1972" descent="-483" units-per-em="2048" alphabetic="0">
</font-face>
<missing-glyph horiz-adv-x="629" />

<glyph unicode="&#xA;" horiz-adv-x="0" />
<glyph unicode="&#xD;" horiz-adv-x="1258" />
<glyph unicode=" " horiz-adv-x="629" />
<glyph unicode="!" horiz-adv-x="688" d="M201 457V1497H485V457H201ZM172 133Q172 204 222 253T344 303Q415 303 464 254T514 133Q514 61 465 11T344 -39Q273 -39 223 12T172 133Z"  />
<glyph unicode="&quot;" horiz-adv-x="678" d="M406 1438H598V879H406V1438ZM80 1438H272V879H80V1438Z"  />
<glyph unicode="#" horiz-adv-x="1575" d="M709 848L621 604H872L958 848H709ZM709 1464H930L784 1049H1026L1174 1464H1395L1247 1049H1530L1456 848H1176L1092 606H1382L1311 406H1020L872 -10H651L799 406H555L406 -10H186L332 406H45L121 606H403L489 848H190L264 1049H561L709 1464Z"  />
<glyph unicode="$" horiz-adv-x="1255" d="M111 219L285 406Q321 326 392 283T559 240V629Q325 728 228 829T131 1071Q131 1230 257 1339T590 1464V1579H684V1463Q800 1459 889 1415T1047 1282L862 1114Q828 1170 787 1198T684 1235V868Q896 783 996 677T1096 432Q1096 255 977 140T655 6V-152H559V4Q398 9 284 64T111 219ZM590 1235Q519 1220 478 1177T436 1075Q436 1021 474 978T590 903V1235ZM655 250Q724 269 763 315T803 424Q803 478 769 516T655 588V250Z"  />
<glyph unicode="%" horiz-adv-x="1731" d="M741 1075Q741 884 649 777T391 670Q225 670 132 776T39 1075Q39 1264 132 1371T391 1479Q558 1479 649 1373T741 1075ZM254 1075Q254 950 290 882T391 813Q459 813 493 879T528 1075Q528 1202 493 1268T391 1335Q325 1335 290 1268T254 1075ZM510 -39H360L1217 1479H1366L510 -39ZM1692 367Q1692 176 1599 69T1339 -39Q1173 -39 1080 68T987 367Q987 556 1080 663T1339 770Q1507 770 1599 665T1692 367ZM1202 365Q1202 240 1238 172T1339 104Q1407 104 1443 171T1479 367Q1479 493 1444 560T1341 627Q1275 627 1239 559T1202 365Z"  />
<glyph unicode="&amp;" horiz-adv-x="1464" d="M614 934L666 965Q723 1000 751 1043T780 1139Q780 1202 742 1241T643 1280Q578 1280 538 1241T498 1137Q498 1108 509 1078T543 1022L614 934ZM819 317L543 649L512 627Q437 572 402 518T367 403Q367 323 428 264T573 205Q649 205 712 233T819 317ZM1094 0L969 143Q872 48 779 7T567 -35Q351 -35 224 80T96 385Q96 510 172 616T406 815Q323 897 289 972T254 1135Q254 1284 360 1373T647 1462Q820 1462 922 1378T1024 1153Q1024 1056 965 974T756 791L1004 504Q1068 565 1120 620T1217 731L1378 559Q1327 502 1273 445T1155 324L1423 0H1094Z"  />
<glyph unicode="&apos;" horiz-adv-x="352" d="M80 1438H272V879H80V1438Z"  />
<glyph unicode="(" horiz-adv-x="688" d="M627 1466Q519 1250 468 1020T416 528Q416 241 467 14T627 -416L401 -469Q284 -250 224 -2T164 514Q164 808 222 1053T401 1516L627 1466Z"  />
<glyph unicode=")" horiz-adv-x="688" d="M61 1466L287 1516Q406 1304 465 1054T524 514Q524 246 464 -2T287 -469L61 -416Q170 -214 221 13T272 528Q272 791 221 1020T61 1466Z"  />
<glyph unicode="*" horiz-adv-x="973" d="M215 834L129 971L362 1092L133 1212L215 1350L424 1200L410 1464H571L557 1204L762 1350L842 1212L618 1090L838 975L762 836L555 983L571 733H412L428 979L215 834Z"  />
<glyph unicode="+" horiz-adv-x="1706" d="M752 1221H954V711H1452V512H954V0H752V512H254V711H752V1221Z"  />
<glyph unicode="&#x2c;" horiz-adv-x="629" d="M63 -332L256 295H563L254 -332H63Z"  />
<glyph unicode="-" horiz-adv-x="854" d="M147 362V614H707V362H147Z"  />
<glyph unicode="." horiz-adv-x="629" d="M141 141Q141 213 191 264T313 315Q384 315 434 264T485 141Q485 70 435 21T313 -29Q242 -29 192 21T141 141Z"  />
<glyph unicode="/" horiz-adv-x="930" d="M0 -190L717 1497H930L213 -190H0Z"  />
<glyph unicode="0" horiz-adv-x="1255" d="M1169 721Q1169 363 1026 162T629 -39Q373 -39 231 160T88 721Q88 1077 231 1278T629 1479Q886 1479 1027 1281T1169 721ZM391 719Q391 483 452 357T627 231Q744 231 804 356T864 723Q864 962 804 1086T629 1210Q513 1210 452 1084T391 719Z"  />
<glyph unicode="1" horiz-adv-x="1255" d="M512 0V1204H219L342 1450H807V0H512Z"  />
<glyph unicode="2" horiz-adv-x="1255" d="M1094 242V0H80L600 682Q708 823 750 904T793 1047Q793 1133 742 1182T600 1231Q516 1231 466 1170T416 1004V997H121V1022Q121 1240 246 1359T600 1479Q834 1479 964 1372T1094 1073Q1094 857 756 435L735 410L600 242H1094Z"  />
<glyph unicode="3" horiz-adv-x="1255" d="M106 387H395V383Q395 304 454 255T610 205Q721 205 781 260T842 416Q842 523 780 578T596 633Q590 633 577 632T557 631V887Q563 887 575 886T592 885Q700 885 754 931T809 1069Q809 1147 760 1195T629 1243Q543 1243 494 1204T436 1092H158Q169 1278 293 1378T639 1479Q852 1479 977 1374T1102 1090Q1102 965 1035 878T856 770Q985 742 1061 641T1137 395Q1137 194 994 78T604 -39Q379 -39 243 75T106 375V387Z"  />
<glyph unicode="4" horiz-adv-x="1255" d="M752 0V281H47V416L752 1479H1020V489H1174V281H1020V0H752ZM756 489V993Q756 1067 758 1105T766 1175Q747 1124 721 1073T664 973L348 489H756Z"  />
<glyph unicode="5" horiz-adv-x="1255" d="M156 317Q259 248 333 224T494 199Q639 199 722 270T805 465Q805 593 724 662T492 731Q412 731 344 710T219 645L150 688L332 1450H1087V1204H522L451 907Q502 923 548 930T643 938Q850 938 981 808T1112 473Q1112 237 952 99T514 -39Q391 -39 288 -10T92 80L156 317Z"  />
<glyph unicode="6" horiz-adv-x="1255" d="M403 451Q403 344 464 282T629 219Q728 219 789 283T850 451Q850 561 789 623T621 686Q525 686 464 620T403 451ZM526 874Q567 896 610 905T715 915Q902 915 1021 788T1141 463Q1141 237 996 99T612 -39Q388 -39 254 99T119 465Q119 596 178 751T362 1096L594 1450H944L526 874Z"  />
<glyph unicode="7" horiz-adv-x="1255" d="M201 0L786 1204H127V1450H1171V1358L514 0H201Z"  />
<glyph unicode="8" horiz-adv-x="1255" d="M872 774Q997 736 1069 634T1141 393Q1141 191 1004 76T623 -39Q382 -39 242 76T102 387Q102 530 174 633T373 774Q261 821 209 897T156 1090Q156 1263 284 1371T623 1479Q837 1479 963 1371T1090 1079Q1090 971 1034 893T872 774ZM625 1241Q541 1241 491 1195T440 1073Q440 994 488 949T621 903Q707 903 756 947T805 1071Q805 1150 757 1195T625 1241ZM623 207Q727 207 786 264T846 422Q846 524 787 581T623 639Q519 639 458 580T397 422Q397 323 457 265T623 207Z"  />
<glyph unicode="9" horiz-adv-x="1255" d="M856 991Q856 1098 796 1160T633 1223Q533 1223 472 1159T410 991Q410 881 470 819T639 756Q735 756 795 821T856 991ZM733 567Q691 545 647 535T545 524Q358 524 240 651T121 977Q121 1203 265 1341T647 1479Q872 1479 1007 1342T1143 979Q1143 846 1082 688T897 346L666 0H315L733 567Z"  />
<glyph unicode=":" horiz-adv-x="688" d="M172 797Q172 868 222 917T344 967Q415 967 464 918T514 797Q514 725 465 675T344 625Q273 625 223 675T172 797ZM172 143Q172 215 222 264T344 313Q415 313 464 264T514 143Q514 72 465 22T344 -29Q273 -29 223 22T172 143Z"  />
<glyph unicode=";" horiz-adv-x="688" d="M264 797Q264 868 314 917T436 967Q508 967 558 918T608 797Q608 725 558 675T436 625Q365 625 315 675T264 797ZM80 -332L270 295H580L270 -332H80Z"  />
<glyph unicode="&lt;" horiz-adv-x="1706" d="M1442 1194V975L549 610L1442 246V27L264 512V711L1442 1194Z"  />
<glyph unicode="=" horiz-adv-x="1706" d="M254 496H1452V297H254V496ZM254 926H1452V727H254V926Z"  />
<glyph unicode="&gt;" horiz-adv-x="1706" d="M264 1194L1442 711V512L264 27V246L1159 610L264 975V1194Z"  />
<glyph unicode="?" horiz-adv-x="1186" d="M397 133Q397 204 447 253T569 303Q641 303 691 254T741 133Q741 62 691 12T569 -39Q498 -39 448 12T397 133ZM707 428H432V856H520Q622 856 678 914T735 1077Q735 1172 694 1223T573 1274Q494 1274 452 1226T410 1085Q410 1080 411 1070T412 1055H129V1087Q129 1273 255 1385T590 1497Q793 1497 910 1382T1028 1067Q1028 913 946 816T707 686V428Z"  />
<glyph unicode="@" horiz-adv-x="2048" d="M1167 272Q1112 188 1040 149T870 109Q712 109 630 195T547 449Q547 688 686 850T1030 1012Q1110 1012 1169 979T1266 881L1319 979H1497L1350 381Q1347 370 1345 359T1343 340Q1343 305 1367 288T1438 270Q1477 270 1519 290T1599 346Q1685 426 1729 533T1774 768Q1774 1008 1589 1162T1110 1317Q969 1317 848 1283T627 1182Q457 1068 366 897T274 522Q274 215 481 32T1034 -152Q1196 -152 1350 -103T1638 39L1720 -78Q1567 -193 1396 -251T1038 -309Q846 -309 685 -261T399 -117Q244 4 167 162T90 520Q90 687 142 838T297 1114Q445 1295 653 1388T1116 1481Q1285 1481 1433 1436T1692 1307Q1827 1202 1893 1068T1960 764Q1960 599 1895 460T1706 221Q1636 165 1554 136T1382 106Q1276 106 1223 148T1167 272ZM1217 700Q1204 781 1160 823T1042 866Q928 866 844 742T760 444Q760 352 800 304T918 256Q1001 256 1069 319T1163 483L1217 700Z"  />
<glyph unicode="A" horiz-adv-x="1460" d="M922 557L758 1030Q751 1051 740 1102T717 1227Q704 1156 692 1100T674 1024L516 557H922ZM-10 0L547 1464H905L1470 0H1114L995 311H428L326 0H-10Z"  />
<glyph unicode="B" horiz-adv-x="1223" d="M477 244H600Q718 244 779 295T840 446Q840 539 780 588T604 637H477V244ZM477 879H547Q689 879 748 919T807 1053Q807 1145 751 1184T553 1223H477V879ZM164 0V1464H438Q651 1464 749 1448T920 1393Q1005 1344 1051 1264T1098 1083Q1098 953 1021 875T791 770Q968 744 1058 655T1149 418Q1149 310 1097 221T954 82Q873 38 764 19T403 0H371H164Z"  />
<glyph unicode="C" horiz-adv-x="1470" d="M1343 1083Q1248 1168 1148 1207T934 1247Q700 1247 561 1107T422 731Q422 500 551 365T903 229Q1030 229 1139 271T1341 399L1339 78Q1239 19 1130 -10T899 -39Q549 -39 325 178T100 731Q100 1065 325 1282T905 1499Q1024 1499 1135 1474T1354 1397L1343 1083Z"  />
<glyph unicode="D" horiz-adv-x="1542" d="M477 264H651Q897 264 1009 376T1122 731Q1122 973 1010 1085T651 1198H477V264ZM164 0V1464H563Q799 1464 935 1431T1174 1321Q1307 1222 1375 1072T1444 729Q1444 534 1374 384T1169 135Q1069 63 947 32T588 0H477H164Z"  />
<glyph unicode="E" horiz-adv-x="1169" d="M164 0V1464H1026V1200H477V899H1026V633H477V266H1026V0H164Z"  />
<glyph unicode="F" horiz-adv-x="1104" d="M164 0V1464H1026V1200H477V899H1026V633H477V0H164Z"  />
<glyph unicode="G" horiz-adv-x="1645" d="M891 772H1558Q1560 759 1560 744T1561 698Q1561 369 1373 165T887 -39Q546 -39 325 178T104 731Q104 1063 326 1280T887 1497Q1066 1497 1215 1422T1481 1198L1270 1042Q1191 1140 1104 1183T903 1227Q686 1227 556 1092T426 731Q426 509 556 373T897 236Q1051 236 1147 308T1243 498V514H891V772Z"  />
<glyph unicode="H" horiz-adv-x="1587" d="M164 0V1464H477V877H1112V1464H1425V0H1112V612H477V0H164Z"  />
<glyph unicode="I" horiz-adv-x="653" d="M170 0V1464H483V0H170Z"  />
<glyph unicode="J" horiz-adv-x="909" d="M758 1464V500Q758 335 745 258T702 127Q658 45 573 3T365 -39Q211 -39 119 38T0 264L227 372Q235 303 262 268T338 233Q398 233 421 276T444 471V602V1464H758Z"  />
<glyph unicode="K" horiz-adv-x="1327" d="M164 0V1464H477V801L965 1464H1327L803 797L1346 0H969L477 766V0H164Z"  />
<glyph unicode="L" horiz-adv-x="1010" d="M164 0V1464H477V266H977V0H164Z"  />
<glyph unicode="M" horiz-adv-x="1819" d="M37 0L260 1464H588L870 602Q879 575 889 523T909 404Q917 472 927 525T946 604L1233 1464H1556L1780 0H1483L1376 883Q1364 981 1360 1031T1356 1124Q1356 1147 1356 1158T1358 1179Q1343 1093 1330 1031T1305 936L995 0H819L514 936Q510 949 497 1008T459 1180V1137Q459 1035 441 887L440 883L334 0H37Z"  />
<glyph unicode="N" horiz-adv-x="1708" d="M164 0V1464H489L1137 612Q1165 576 1198 511T1268 356Q1257 421 1252 485T1247 645V1464H1546V0H1239L573 868Q545 904 512 969T442 1126Q453 1063 458 999T463 836V0H164Z"  />
<glyph unicode="O" horiz-adv-x="1763" d="M1663 729Q1663 572 1605 432T1436 186Q1322 77 1179 19T883 -39Q749 -39 621 6T385 137Q247 247 174 400T100 729Q100 887 158 1025T328 1272Q438 1379 583 1438T883 1497Q1036 1497 1180 1438T1436 1272Q1547 1164 1605 1025T1663 729ZM883 240Q1082 240 1211 379T1341 729Q1341 937 1210 1079T883 1221Q684 1221 553 1080T422 729Q422 517 551 379T883 240Z"  />
<glyph unicode="P" horiz-adv-x="1139" d="M479 803H524Q652 803 710 856T768 1026Q768 1134 710 1183T524 1233H479V803ZM164 0V1464H524Q812 1464 949 1354T1087 1014Q1087 801 949 680T565 559H479V0H164Z"  />
<glyph unicode="Q" horiz-adv-x="1763" d="M1092 496L1200 369Q1268 439 1304 533T1341 729Q1341 937 1210 1079T883 1221Q684 1221 553 1080T422 729Q422 518 550 379T877 240Q894 240 924 243T997 254L786 496H1092ZM1655 -170H1343L1184 18Q1076 -10 1005 -22T877 -35Q726 -35 581 24T328 188Q217 296 158 436T98 731Q98 885 157 1024T328 1274Q437 1382 580 1439T883 1497Q1039 1497 1182 1440T1436 1274Q1547 1165 1606 1026T1665 731Q1665 559 1594 410T1386 145L1655 -170Z"  />
<glyph unicode="R" horiz-adv-x="1241" d="M1223 0H862L477 684V0H164V1464H612Q879 1464 1012 1361T1145 1049Q1145 898 1054 791T819 666L1223 0ZM477 840H524Q714 840 775 881T836 1026Q836 1134 771 1179T524 1225H477V840Z"  />
<glyph unicode="S" horiz-adv-x="1147" d="M70 186L244 383Q277 302 350 256T514 209Q624 209 688 261T752 401Q752 505 539 608Q470 641 430 662Q238 762 164 857T90 1085Q90 1266 233 1382T606 1499Q739 1499 835 1453T1006 1307L821 1130Q788 1194 734 1225T602 1257Q509 1257 452 1211T395 1090Q395 974 621 878Q666 859 690 848Q876 763 965 656T1055 412Q1055 206 915 84T537 -39Q369 -39 249 19T70 186Z"  />
<glyph unicode="T" horiz-adv-x="1110" d="M711 1198V0H397V1198H39V1464H1071V1198H711Z"  />
<glyph unicode="U" horiz-adv-x="1583" d="M1423 1464V553Q1423 255 1266 108T793 -39Q472 -39 315 108T158 553V1464H469V602Q469 421 549 330T788 238Q948 238 1030 330T1112 602V1464H1423Z"  />
<glyph unicode="V" horiz-adv-x="1370" d="M535 0L-6 1464H340L625 551Q633 523 650 447T686 274Q699 368 714 441T745 561L1034 1464H1376L831 0H535Z"  />
<glyph unicode="W" horiz-adv-x="2058" d="M1182 1464L1399 670Q1420 594 1438 507T1472 312Q1474 403 1485 491T1520 670L1710 1464H2019L1636 0H1335L1073 934Q1054 998 1043 1063T1028 1198Q1023 1124 1013 1058T985 934L721 0H420L37 1464H350L543 651Q559 581 569 500T584 322Q603 449 654 644L659 665L874 1464H1182Z"  />
<glyph unicode="X" horiz-adv-x="1229" d="M549 1081Q573 1040 587 1009T612 942Q625 978 641 1013T680 1087L887 1464H1219L782 766L1233 0H895L678 406Q658 443 643 483T614 567Q597 515 580 474T547 403L330 0H-6L446 766L6 1464H340L549 1081Z"  />
<glyph unicode="Y" horiz-adv-x="1241" d="M465 0V668L-31 1464H336L553 1063Q569 1033 586 987T621 881Q635 932 652 977T692 1065L907 1464H1272L778 668V0H465Z"  />
<glyph unicode="Z" horiz-adv-x="1298" d="M1235 0H6L764 1214H84V1464H1266L508 252H1235V0Z"  />
<glyph unicode="[" horiz-adv-x="688" d="M182 1497H633V1266H434V-217H633V-451H182V1497Z"  />
<glyph unicode="\" horiz-adv-x="930" d="M717 -190L0 1497H213L930 -190H717Z"  />
<glyph unicode="]" horiz-adv-x="688" d="M506 1497V-451H55V-217H254V1266H55V1497H506Z"  />
<glyph unicode="^" horiz-adv-x="2048" d="M897 1460H1149L1630 899H1395L1024 1270L651 899H416L897 1460Z"  />
<glyph unicode="_" horiz-adv-x="1024" d="M0 -279H1024V-483H0V-279Z"  />
<glyph unicode="`" horiz-adv-x="1024" d="M219 1495H477L674 1126H532L219 1495Z"  />
<glyph unicode="a" horiz-adv-x="1251" d="M862 492Q862 624 796 701T616 778Q500 778 434 702T367 492Q367 359 432 285T614 211Q732 211 797 285T862 492ZM1122 0H846L850 141Q792 48 711 5T512 -39Q317 -39 198 106T78 489Q78 737 195 875T522 1014Q631 1014 713 965T852 819V981H1122V0Z"  />
<glyph unicode="b" horiz-adv-x="1262" d="M399 492Q399 359 464 285T647 211Q764 211 829 285T895 492Q895 625 829 701T645 778Q532 778 466 701T399 492ZM139 0V1550H412V991Q412 945 409 900T399 811Q469 917 551 965T739 1014Q949 1014 1066 876T1184 489Q1184 250 1065 106T752 -39Q635 -39 554 4T414 141L416 0H139Z"  />
<glyph unicode="c" horiz-adv-x="938" d="M862 29Q804 -6 740 -22T600 -39Q368 -39 222 108T76 492Q76 723 223 868T604 1014Q682 1014 744 999T862 952L860 666Q815 712 756 737T631 762Q511 762 439 689T367 494Q367 370 440 297T639 223Q708 223 761 248T860 326L862 29Z"  />
<glyph unicode="d" horiz-adv-x="1262" d="M862 492Q862 624 796 701T616 778Q500 778 434 703T367 494Q367 361 432 286T614 211Q732 211 797 285T862 492ZM1122 0H846L850 141Q792 48 711 5T512 -39Q317 -39 198 106T78 489Q78 738 195 877T522 1016Q629 1016 710 967T862 812Q857 848 855 891T852 991V1550H1122V0Z"  />
<glyph unicode="e" horiz-adv-x="1174" d="M815 592Q803 685 748 732T596 780Q500 780 443 733T369 592H815ZM1097 420H360Q377 314 437 262T600 209Q678 209 734 239T829 330L1059 215Q979 86 865 24T594 -39Q356 -39 217 103T78 485Q78 716 223 865T596 1014Q830 1014 966 875T1102 494Q1102 481 1101 466T1097 420Z"  />
<glyph unicode="f" horiz-adv-x="678" d="M174 0V758H47V981H174V1202Q174 1400 265 1485T565 1571Q588 1571 618 1567T698 1550V1323Q672 1337 648 1343T598 1350Q523 1350 491 1311T459 1174V981H641V758H459V0H174Z"  />
<glyph unicode="g" horiz-adv-x="1262" d="M1120 16Q1120 -139 1102 -202T1038 -311Q974 -380 874 -413T631 -446Q392 -446 268 -370T133 -139H446Q453 -196 498 -223T631 -250Q747 -250 798 -190T850 10V150Q793 59 713 15T522 -29Q320 -29 199 112T78 494Q78 738 196 876T522 1014Q629 1014 712 965T852 819V981H1120V16ZM862 492Q862 622 796 697T616 772Q499 772 433 698T367 492Q367 361 432 288T614 215Q731 215 796 288T862 492Z"  />
<glyph unicode="h" horiz-adv-x="1266" d="M139 0V1550H418V999Q418 953 415 908T406 819Q494 922 582 968T780 1014Q894 1014 972 975T1094 858Q1116 817 1125 766T1135 604V573V0H850V485Q850 666 808 724T664 782Q605 782 556 758T473 688Q447 653 436 608T424 471V432V0H139Z"  />
<glyph unicode="i" horiz-adv-x="584" d="M125 1384Q125 1452 174 1501T291 1550Q360 1550 409 1502T459 1384Q459 1315 410 1266T291 1217Q223 1217 174 1267T125 1384ZM150 0V981H434V0H150Z"  />
<glyph unicode="j" horiz-adv-x="584" d="M125 1384Q125 1452 174 1501T291 1550Q360 1550 409 1502T459 1384Q459 1315 410 1266T291 1217Q223 1217 174 1267T125 1384ZM150 -446V981H434V-446H150Z"  />
<glyph unicode="k" horiz-adv-x="1157" d="M139 1550H424V547L788 981H1130L735 547L1169 0H817L424 520V0H139V1550Z"  />
<glyph unicode="l" horiz-adv-x="584" d="M150 0V1550H434V0H150Z"  />
<glyph unicode="m" horiz-adv-x="1862" d="M420 0H135V981H420V827Q490 924 569 969T750 1014Q872 1014 948 964T1057 813Q1125 913 1211 963T1401 1014Q1505 1014 1577 976T1690 860Q1711 818 1720 765T1729 604V573V0H1444V485Q1444 664 1408 723T1280 782Q1170 782 1121 700T1071 432V0H786V485Q786 658 752 719T635 780Q522 780 471 698T420 432V0Z"  />
<glyph unicode="n" horiz-adv-x="1266" d="M139 0V981H418V827Q495 923 583 968T780 1014Q894 1014 971 976T1094 858Q1116 817 1125 766T1135 604V573V0H850V485Q850 666 808 724T664 782Q605 782 556 758T473 688Q447 653 436 608T424 471V432V0H139Z"  />
<glyph unicode="o" horiz-adv-x="1247" d="M881 489Q881 609 811 680T623 752Q505 752 436 681T367 489Q367 369 436 297T623 225Q740 225 810 297T881 489ZM1171 487Q1171 261 1017 111T625 -39Q386 -39 231 111T76 487Q76 712 232 863T625 1014Q863 1014 1017 865T1171 487Z"  />
<glyph unicode="p" horiz-adv-x="1262" d="M399 492Q399 359 464 285T647 211Q764 211 829 285T895 492Q895 625 829 701T645 778Q532 778 466 701T399 492ZM139 -446V981H412V819Q468 917 549 965T739 1014Q948 1014 1066 876T1184 489Q1184 250 1065 106T752 -39Q635 -39 554 4T414 141Q419 104 421 61T424 -39V-446H139Z"  />
<glyph unicode="q" horiz-adv-x="1262" d="M862 492Q862 624 796 701T616 778Q500 778 434 702T367 492Q367 359 432 285T614 211Q732 211 797 285T862 492ZM1122 -446H838V-39Q838 8 841 53T850 141Q792 48 711 5T512 -39Q317 -39 198 106T78 489Q78 737 195 875T522 1014Q631 1014 713 965T852 819V981H1122V-446Z"  />
<glyph unicode="r" horiz-adv-x="834" d="M414 729Q457 872 537 943T737 1014Q764 1014 826 1004Q838 1002 844 1001L801 695Q769 708 737 714T668 721Q538 721 481 655T424 432V0H139V981H420L414 729Z"  />
<glyph unicode="s" horiz-adv-x="934" d="M43 172L262 285Q273 228 321 195T440 162Q510 162 550 187T590 258Q590 329 448 377Q404 392 378 402Q205 467 139 533T72 696Q72 840 185 929T483 1018Q615 1018 711 965T852 815L643 711Q626 766 584 794T479 823Q416 823 377 797T338 729Q338 656 532 593Q555 586 567 582Q728 529 796 459T864 279Q864 133 751 47T446 -39Q294 -39 187 17T43 172Z"  />
<glyph unicode="t" horiz-adv-x="633" d="M174 0V758H37V981H174V1307H459V981H596V758H459V0H174Z"  />
<glyph unicode="u" horiz-adv-x="1268" d="M418 981V465Q418 335 468 279T633 223Q746 223 797 279T848 465V981H1133V465Q1133 206 1012 84T637 -39Q378 -39 257 83T135 465V981H418Z"  />
<glyph unicode="v" horiz-adv-x="1053" d="M381 0L-18 981H311L477 471Q497 409 509 356T526 252Q538 329 550 383T578 481L745 981H1069L666 0H381Z"  />
<glyph unicode="w" horiz-adv-x="1673" d="M991 981L1133 473Q1137 458 1143 420T1167 264Q1176 310 1189 361T1223 475L1376 981H1686L1346 0H1042L895 508Q891 522 882 553Q849 668 834 741Q821 673 809 617T782 512L631 0H328L-12 981H299L449 494Q469 428 482 375T504 265Q512 326 523 382T549 492L680 981H991Z"  />
<glyph unicode="x" horiz-adv-x="1020" d="M319 0H-18L330 498L0 981H356L453 799Q471 764 485 727T512 649Q523 687 539 724T578 801L682 981H1020L684 504L1038 0H684L569 201Q549 239 534 276T508 352Q498 313 482 277T440 199L319 0Z"  />
<glyph unicode="y" horiz-adv-x="1053" d="M381 76L-14 981H315L485 532Q502 490 513 436T530 314Q540 368 555 424T592 543L741 981H1067L483 -446H168L381 76Z"  />
<glyph unicode="z" horiz-adv-x="985" d="M940 0H0L520 758H63V981H952L438 223H940V0Z"  />
<glyph unicode="{" horiz-adv-x="1024" d="M883 1477V1268Q874 1268 858 1269T836 1270Q735 1270 700 1232T664 1069V829Q664 681 619 619T457 530Q574 503 619 442T664 233V-8Q664 -131 699 -169T836 -207Q842 -207 858 -206T883 -205V-414Q869 -414 844 -415T807 -416Q707 -416 640 -404T526 -367Q469 -333 446 -276T422 -76V176Q422 313 371 370T199 428Q193 428 179 427T158 426V635Q165 635 179 634T199 633Q319 633 370 691T422 887V1137Q422 1280 445 1338T526 1430Q573 1455 640 1467T807 1479Q819 1479 844 1478T883 1477Z"  />
<glyph unicode="|" horiz-adv-x="1024" d="M410 1565H616V-483H410V1565Z"  />
<glyph unicode="}" horiz-adv-x="1024" d="M143 1477H211Q321 1477 388 1465T500 1427Q557 1395 580 1336T604 1137V885Q604 748 655 691T827 633Q833 633 847 634T868 635V426H831Q706 426 655 370T604 176V-76Q604 -219 581 -277T500 -367Q453 -392 386 -404T219 -416Q207 -416 182 -415T143 -414V-205Q152 -205 168 -206T190 -207Q291 -207 326 -169T362 -8V231Q362 381 407 442T569 530Q452 557 407 619T362 829V1071Q362 1193 327 1231T190 1270Q184 1270 168 1269T143 1268V1477Z"  />
<glyph unicode="~" horiz-adv-x="1706" d="M1530 803V582Q1426 511 1334 478T1151 444Q1105 444 1059 452T967 475Q943 483 896 500Q677 575 563 575Q478 575 386 538T178 418V639Q285 711 382 746T565 782Q682 782 856 724L860 723Q878 717 915 704Q1070 649 1155 649Q1240 649 1330 686T1530 803Z"  />
<glyph unicode="&#xA0;" horiz-adv-x="1255" />
<glyph unicode="&#xA1;" horiz-adv-x="688" d="M201 1004H485V-39H201V1004ZM172 1327Q172 1397 222 1447T344 1497Q416 1497 465 1448T514 1327Q514 1256 465 1207T344 1157Q272 1157 222 1206T172 1327Z"  />
<glyph unicode="&#xA2;" horiz-adv-x="1255" d="M961 256Q912 230 859 214T745 190V-12H633V190Q410 229 292 369T174 733Q174 933 298 1071T633 1241V1407H745V1243Q801 1237 854 1222T961 1182L958 895Q914 941 856 965T729 989Q609 989 537 917T465 723Q465 599 538 526T737 453Q807 453 860 477T958 553L961 256Z"  />
<glyph unicode="&#xA3;" horiz-adv-x="1255" d="M487 274H504Q569 274 683 229T854 184Q909 184 951 211T1026 295L1180 131Q1126 45 1052 1T889 -43Q775 -43 618 13T422 70Q370 70 315 38T215 -51L59 102Q127 189 193 232T336 283Q359 306 369 334T379 410Q379 461 366 505T324 590H98V733H260Q206 813 180 888T154 1036Q154 1224 307 1351T692 1479Q903 1479 1042 1359T1188 1055L911 1018Q904 1124 845 1179T682 1235Q582 1235 520 1181T457 1040Q457 969 540 774Q551 747 557 733H924V590H609Q611 563 612 547T614 520Q614 449 585 392T487 274Z"  />
<glyph unicode="&#xA4;" horiz-adv-x="1255" d="M1192 367L1182 68Q1102 16 1011 -11T829 -39Q569 -39 394 115T172 541H0L27 657L158 658Q157 669 157 682T156 723Q156 753 156 768T157 797H0L27 915H174Q225 1176 401 1327T831 1479Q929 1479 1017 1450T1184 1362V1065Q1110 1142 1028 1180T856 1219Q721 1219 625 1139T489 915H1028L989 797L467 796Q466 784 466 769T465 723Q465 696 465 683T467 658L944 657L903 541H481Q515 391 610 307T842 223Q936 223 1027 260T1192 367Z"  />
<glyph unicode="&#xA5;" horiz-adv-x="1255" d="M489 0V537H14V705H461L362 864H14V1032H258L-6 1452H326L553 1053Q573 1016 593 968T631 864Q647 919 666 965T709 1053L938 1452H1268L1006 1032H1237V864H899L801 705H1237V537H774V0H489Z"  />
<glyph unicode="&#xA6;" horiz-adv-x="1024" d="M410 408H616V-350H410V408ZM410 1432H616V674H410V1432Z"  />
<glyph unicode="&#xA7;" horiz-adv-x="1176" d="M414 874Q290 910 230 980T170 1159Q170 1309 292 1404T612 1499Q798 1499 906 1410T1014 1165V1137H748Q743 1218 702 1256T575 1294Q510 1294 468 1258T426 1165Q426 1108 471 1064T612 981Q909 866 993 776T1077 545Q1077 416 1000 328T774 201Q887 162 948 81T1010 -111Q1010 -269 894 -361T575 -453Q379 -453 260 -354T141 -94Q141 -90 142 -80T143 -63L408 -64Q409 -154 452 -201T580 -248Q660 -248 707 -207T754 -98Q754 15 529 106Q502 117 487 123Q264 215 185 302T106 528Q106 661 184 748T414 874ZM588 326Q677 326 740 386T803 535Q803 622 740 683T588 745Q499 745 436 684T373 535Q373 447 435 387T588 326Z"  />
<glyph unicode="&#xA8;" horiz-adv-x="1024" d="M569 1309Q569 1360 608 1399T700 1438Q754 1438 791 1400T829 1309Q829 1252 793 1215T700 1178Q645 1178 607 1215T569 1309ZM195 1309Q195 1360 234 1399T326 1438Q379 1438 417 1400T455 1309Q455 1252 418 1215T326 1178Q270 1178 233 1215T195 1309Z"  />
<glyph unicode="&#xA9;" horiz-adv-x="1706" d="M1212 897H1024Q1016 967 971 1005T852 1044Q761 1044 709 963T657 735Q657 588 709 511T860 434Q933 434 977 476T1030 595L1223 596Q1215 457 1114 373T854 289Q668 289 561 407T453 729Q453 935 562 1057T856 1180Q1008 1180 1106 1102T1212 897ZM854 1356Q726 1356 615 1310T416 1176Q327 1086 280 973T233 735Q233 610 280 498T416 297Q504 209 617 162T854 115Q978 115 1091 162T1296 299Q1384 385 1429 496T1475 735Q1475 861 1429 973T1294 1174Q1205 1263 1093 1309T854 1356ZM852 1479Q1004 1479 1139 1423T1382 1260Q1487 1155 1542 1020T1597 733Q1597 581 1543 449T1382 213Q1271 105 1134 48T852 -10Q705 -10 572 46T330 211Q223 317 167 451T111 733Q111 882 167 1017T330 1262Q435 1368 568 1423T852 1479Z"  />
<glyph unicode="&#xAA;" horiz-adv-x="938" d="M109 610H793V487H109V610ZM463 1325Q379 1325 332 1272T285 1126Q285 1033 331 981T461 928Q544 928 590 979T637 1124Q637 1216 590 1270T463 1325ZM629 1374V1475H852V772H625L627 858Q597 804 535 775T385 745Q233 745 141 848T49 1122Q49 1298 140 1397T391 1497Q474 1497 534 1466T629 1374Z"  />
<glyph unicode="&#xAB;" horiz-adv-x="1059" d="M573 836L297 485L567 139L418 33L63 487L420 942L573 836ZM995 836L717 485L987 139L838 33L485 487L842 942L995 836Z"  />
<glyph unicode="&#xAC;" horiz-adv-x="1706" d="M254 864H1452V362H1253V668H254V864Z"  />
<glyph unicode="&#xAD;" horiz-adv-x="854" d="M147 362V614H707V362H147Z"  />
<glyph unicode="&#xAE;" horiz-adv-x="1706" d="M745 1034V795H844Q932 795 973 823T1014 911Q1014 974 970 1004T834 1034H745ZM545 1161H868Q1044 1161 1132 1102T1221 924Q1221 842 1173 784T1040 705L1225 336H1001L844 674H745V336H545V1161ZM854 1356Q727 1356 618 1312T422 1180Q331 1089 282 974T233 735Q233 611 279 500T412 301Q501 210 615 162T852 113Q972 113 1085 160T1292 295Q1379 379 1427 491T1475 723Q1475 856 1431 968T1298 1169Q1208 1262 1096 1309T854 1356ZM852 1479Q1006 1479 1142 1422T1386 1255Q1489 1151 1543 1017T1597 733Q1597 581 1541 446T1378 207Q1271 102 1135 46T852 -10Q703 -10 567 48T324 215Q220 320 166 453T111 733Q111 835 138 931T219 1120Q320 1290 486 1384T852 1479Z"  />
<glyph unicode="&#xAF;" horiz-adv-x="1024" d="M225 1229V1384H799V1229H225Z"  />
<glyph unicode="&#xB0;" horiz-adv-x="674" d="M338 1335Q265 1335 214 1284T162 1161Q162 1087 213 1036T338 985Q410 985 461 1037T512 1161Q512 1233 461 1284T338 1335ZM338 1464Q464 1464 552 1375T641 1159Q641 1034 552 945T336 856Q210 856 123 944T35 1159Q35 1286 123 1375T338 1464Z"  />
<glyph unicode="&#xB1;" horiz-adv-x="1706" d="M254 197H1452V-2H254V197ZM752 1223H954V897H1452V698H954V373H752V698H254V897H752V1223Z"  />
<glyph unicode="&#xB2;" horiz-adv-x="829" d="M721 721V575H53L395 985Q467 1069 494 1117T522 1204Q522 1256 489 1285T395 1315Q341 1315 308 1278T274 1178V1174H80V1188Q80 1319 162 1390T395 1462Q551 1462 636 1398T721 1219Q721 1087 492 829L486 822L395 721H721Z"  />
<glyph unicode="&#xB3;" horiz-adv-x="829" d="M70 807H260V805Q260 757 299 728T403 698Q476 698 515 731T555 825Q555 889 515 921T393 954H369V1108Q371 1108 379 1107T391 1106Q462 1106 498 1134T535 1217Q535 1263 502 1292T416 1321Q359 1321 327 1298T289 1231H104Q111 1342 193 1402T422 1462Q563 1462 645 1399T727 1229Q727 1155 682 1102T565 1038Q650 1021 700 960T750 813Q750 692 656 623T399 553Q249 553 160 621T70 801V807Z"  />
<glyph unicode="&#xB4;" horiz-adv-x="1024" d="M805 1495L492 1126H350L547 1495H805Z"  />
<glyph unicode="&#xB5;" horiz-adv-x="1249" d="M205 1092H494L418 657Q403 577 395 506T387 389Q387 296 429 251T557 205Q657 205 712 287T805 578L895 1092H1184L991 0H723L741 117Q699 39 648 3T526 -33Q459 -33 407 -4T313 88L223 -438H-63L205 1092Z"  />
<glyph unicode="&#xB6;" horiz-adv-x="1024" d="M983 1479V1368H870V0H719V1368H561V0H408V784Q241 790 141 885T41 1130Q41 1288 148 1383T432 1479H983Z"  />
<glyph unicode="&#xB7;" horiz-adv-x="629" d="M141 721Q141 792 191 841T313 891Q385 891 435 842T485 721Q485 650 435 600T313 549Q242 549 192 600T141 721Z"  />
<glyph unicode="&#xB8;" horiz-adv-x="1024" d="M238 -438V-311Q318 -332 385 -343T496 -354Q547 -354 571 -336T596 -279Q596 -242 569 -227T475 -211Q456 -211 443 -211T418 -213V0H520V-90H535Q651 -90 710 -138T770 -283Q770 -382 704 -431T504 -481Q455 -481 386 -470T238 -438Z"  />
<glyph unicode="&#xB9;" horiz-adv-x="829" d="M338 575V1298H143L225 1446H532V575H338Z"  />
<glyph unicode="&#xBA;" horiz-adv-x="934" d="M109 610H825V487H109V610ZM467 1298Q382 1298 333 1251T283 1122Q283 1041 332 994T467 946Q552 946 601 993T651 1122Q651 1203 602 1250T467 1298ZM469 1497Q652 1497 769 1391T887 1122Q887 960 769 853T469 745Q285 745 166 853T47 1122Q47 1281 167 1389T469 1497Z"  />
<glyph unicode="&#xBB;" horiz-adv-x="1059" d="M485 836L639 942L995 487L641 33L494 139L762 485L485 836ZM63 836L217 942L573 487L221 33L72 139L342 485L63 836Z"  />
<glyph unicode="&#xBC;" horiz-adv-x="1925" d="M1606 0V158H1161V233L1606 827H1776V274H1872V158H1776V0H1606ZM1608 274V557Q1608 598 1610 618T1616 657Q1598 620 1583 593T1550 545L1352 274H1608ZM449 -39L1323 1479H1473L598 -39H449ZM322 633V1307H137L215 1444H508V633H322Z"  />
<glyph unicode="&#xBD;" horiz-adv-x="1925" d="M1821 135V0H1184L1511 381Q1582 465 1607 508T1632 586Q1632 634 1600 662T1511 690Q1458 690 1427 655T1395 561V559H1208V571Q1208 695 1287 761T1511 827Q1658 827 1739 768T1821 600Q1821 478 1606 241L1595 229L1511 135H1821ZM449 -39L1323 1479H1473L598 -39H449ZM322 633V1307H137L215 1444H508V633H322Z"  />
<glyph unicode="&#xBE;" horiz-adv-x="1923" d="M1606 0V158H1161V233L1606 827H1776V274H1872V158H1776V0H1606ZM1608 274V557Q1608 598 1610 618T1616 657Q1598 620 1583 593T1550 545L1352 274H1608ZM449 -39L1323 1479H1473L598 -39H449ZM68 850H250V848Q250 803 287 776T385 748Q455 748 492 778T530 866Q530 926 491 956T375 987Q372 987 364 986T350 985V1128H373Q441 1128 475 1154T510 1231Q510 1275 479 1302T395 1329Q342 1329 312 1307T274 1243H100Q107 1348 185 1404T403 1460Q538 1460 616 1402T694 1243Q694 1174 652 1125T539 1065Q621 1048 669 992T717 854Q717 741 627 676T381 610Q240 610 154 674T68 842V850Z"  />
<glyph unicode="&#xBF;" horiz-adv-x="1186" d="M801 1327Q801 1256 751 1207T629 1157Q557 1157 507 1206T457 1327Q457 1398 507 1447T629 1497Q700 1497 750 1447T801 1327ZM492 1032H766V604H678Q575 604 519 547T463 383Q463 288 504 237T625 186Q705 186 746 234T788 375Q788 380 787 390T786 406H1069V373Q1069 187 943 74T608 -39Q406 -39 288 77T170 393Q170 547 252 644T492 774V1032Z"  />
<glyph unicode="&#xC0;" horiz-adv-x="1460" d="M922 557L758 1030Q751 1051 740 1102T717 1227Q704 1156 692 1100T674 1024L516 557H922ZM-10 0L547 1464H905L1470 0H1114L995 311H428L326 0H-10ZM438 1972H696L893 1603H751L438 1972Z"  />
<glyph unicode="&#xC1;" horiz-adv-x="1460" d="M922 557L758 1030Q751 1051 740 1102T717 1227Q704 1156 692 1100T674 1024L516 557H922ZM-10 0L547 1464H905L1470 0H1114L995 311H428L326 0H-10ZM1024 1972L711 1603H569L766 1972H1024Z"  />
<glyph unicode="&#xC2;" horiz-adv-x="1460" d="M922 557L758 1030Q751 1051 740 1102T717 1227Q704 1156 692 1100T674 1024L516 557H922ZM-10 0L547 1464H905L1470 0H1114L995 311H428L326 0H-10ZM416 1603L612 1972H850L1046 1603H905L731 1820L555 1603H416Z"  />
<glyph unicode="&#xC3;" horiz-adv-x="1460" d="M922 557L758 1030Q751 1051 740 1102T717 1227Q704 1156 692 1100T674 1024L516 557H922ZM-10 0L547 1464H905L1470 0H1114L995 311H428L326 0H-10ZM1048 1923Q1020 1796 970 1739T840 1681Q819 1681 801 1683T765 1692L678 1718Q657 1724 642 1726T612 1728Q578 1728 557 1710T524 1651H414Q440 1773 489 1829T618 1886Q636 1886 658 1883T704 1872L797 1847Q809 1843 822 1841T852 1839Q885 1839 906 1859T938 1923H1048Z"  />
<glyph unicode="&#xC4;" horiz-adv-x="1460" d="M922 557L758 1030Q751 1051 740 1102T717 1227Q704 1156 692 1100T674 1024L516 557H922ZM-10 0L547 1464H905L1470 0H1114L995 311H428L326 0H-10ZM788 1786Q788 1837 827 1876T919 1915Q973 1915 1010 1877T1048 1786Q1048 1729 1012 1692T919 1655Q864 1655 826 1692T788 1786ZM414 1786Q414 1837 453 1876T545 1915Q598 1915 636 1877T674 1786Q674 1729 637 1692T545 1655Q489 1655 452 1692T414 1786Z"  />
<glyph unicode="&#xC5;" horiz-adv-x="1460" d="M608 1712Q608 1663 643 1628T727 1593Q777 1593 811 1627T846 1712Q846 1762 812 1796T727 1831Q678 1831 643 1796T608 1712ZM674 1036L516 557H922L758 1040Q749 1070 738 1122T717 1237Q705 1167 694 1113T674 1036ZM-10 0L547 1464H668Q574 1483 521 1549T467 1712Q467 1820 543 1896T727 1972Q836 1972 911 1896T987 1712Q987 1618 937 1553T795 1464H905L1470 0H1114L995 311H428L326 0H-10Z"  />
<glyph unicode="&#xC6;" horiz-adv-x="2038" d="M961 559L797 1030Q787 1062 776 1114T756 1226Q746 1165 735 1112T713 1024L555 559H961ZM1135 0L1034 317H467L365 0H29L586 1464H1542L1628 1200H1053L1149 891H1702L1790 635H1237L1356 266H1933L2021 0H1135Z"  />
<glyph unicode="&#xC7;" horiz-adv-x="1470" d="M1343 1083Q1248 1168 1148 1207T934 1247Q700 1247 561 1107T422 731Q422 500 551 365T903 229Q1030 229 1139 271T1341 399L1339 78Q1239 19 1130 -10T899 -39Q549 -39 325 178T100 731Q100 1065 325 1282T905 1499Q1024 1499 1135 1474T1354 1397L1343 1083ZM617 -438V-311Q697 -332 764 -343T875 -354Q926 -354 950 -336T975 -279Q975 -242 948 -227T854 -211Q835 -211 822 -211T797 -213V0H899V-90H914Q1030 -90 1089 -138T1149 -283Q1149 -382 1083 -431T883 -481Q834 -481 765 -470T617 -438Z"  />
<glyph unicode="&#xC8;" horiz-adv-x="1169" d="M164 0V1464H1026V1200H477V899H1026V633H477V266H1026V0H164ZM299 1972H557L754 1603H612L299 1972Z"  />
<glyph unicode="&#xC9;" horiz-adv-x="1169" d="M164 0V1464H1026V1200H477V899H1026V633H477V266H1026V0H164ZM885 1972L572 1603H430L627 1972H885Z"  />
<glyph unicode="&#xCA;" horiz-adv-x="1169" d="M164 0V1464H1026V1200H477V899H1026V633H477V266H1026V0H164ZM277 1603L473 1972H711L907 1603H766L592 1820L416 1603H277Z"  />
<glyph unicode="&#xCB;" horiz-adv-x="1169" d="M164 0V1464H1026V1200H477V899H1026V633H477V266H1026V0H164ZM649 1786Q649 1837 688 1876T780 1915Q834 1915 871 1877T909 1786Q909 1729 873 1692T780 1655Q725 1655 687 1692T649 1786ZM275 1786Q275 1837 314 1876T406 1915Q459 1915 497 1877T535 1786Q535 1729 498 1692T406 1655Q350 1655 313 1692T275 1786Z"  />
<glyph unicode="&#xCC;" horiz-adv-x="653" d="M170 0V1464H483V0H170ZM36 1972H294L491 1603H349L36 1972Z"  />
<glyph unicode="&#xCD;" horiz-adv-x="653" d="M170 0V1464H483V0H170ZM622 1972L309 1603H167L364 1972H622Z"  />
<glyph unicode="&#xCE;" horiz-adv-x="653" d="M170 0V1464H483V0H170ZM14 1603L210 1972H448L644 1603H503L329 1820L153 1603H14Z"  />
<glyph unicode="&#xCF;" horiz-adv-x="653" d="M170 0V1464H483V0H170ZM386 1786Q386 1837 425 1876T517 1915Q571 1915 608 1877T646 1786Q646 1729 610 1692T517 1655Q462 1655 424 1692T386 1786ZM12 1786Q12 1837 51 1876T143 1915Q196 1915 234 1877T272 1786Q272 1729 235 1692T143 1655Q87 1655 50 1692T12 1786Z"  />
<glyph unicode="&#xD0;" horiz-adv-x="1563" d="M496 264H670Q916 264 1028 376T1141 731Q1141 970 1026 1084T670 1198H496V858H819V629H496V264ZM182 0V629H0V858H182V1464H573Q811 1464 927 1440T1137 1360Q1295 1265 1378 1103T1462 729Q1462 535 1392 384T1188 135Q1087 63 965 32T606 0H496H182Z"  />
<glyph unicode="&#xD1;" horiz-adv-x="1708" d="M164 0V1464H489L1137 612Q1165 576 1198 511T1268 356Q1257 421 1252 485T1247 645V1464H1546V0H1239L573 868Q545 904 512 969T442 1126Q453 1063 458 999T463 836V0H164ZM1171 1923Q1143 1796 1093 1739T963 1681Q942 1681 924 1683T888 1692L801 1718Q780 1724 765 1726T735 1728Q701 1728 680 1710T647 1651H537Q563 1773 612 1829T741 1886Q759 1886 781 1883T827 1872L920 1847Q932 1843 945 1841T975 1839Q1008 1839 1029 1859T1061 1923H1171Z"  />
<glyph unicode="&#xD2;" horiz-adv-x="1763" d="M1663 729Q1663 572 1605 432T1436 186Q1322 77 1179 19T883 -39Q749 -39 621 6T385 137Q247 247 174 400T100 729Q100 887 158 1025T328 1272Q438 1379 583 1438T883 1497Q1036 1497 1180 1438T1436 1272Q1547 1164 1605 1025T1663 729ZM883 240Q1082 240 1211 379T1341 729Q1341 937 1210 1079T883 1221Q684 1221 553 1080T422 729Q422 517 551 379T883 240ZM590 1972H848L1045 1603H903L590 1972Z"  />
<glyph unicode="&#xD3;" horiz-adv-x="1763" d="M1663 729Q1663 572 1605 432T1436 186Q1322 77 1179 19T883 -39Q749 -39 621 6T385 137Q247 247 174 400T100 729Q100 887 158 1025T328 1272Q438 1379 583 1438T883 1497Q1036 1497 1180 1438T1436 1272Q1547 1164 1605 1025T1663 729ZM883 240Q1082 240 1211 379T1341 729Q1341 937 1210 1079T883 1221Q684 1221 553 1080T422 729Q422 517 551 379T883 240ZM1176 1972L863 1603H721L918 1972H1176Z"  />
<glyph unicode="&#xD4;" horiz-adv-x="1763" d="M1663 729Q1663 572 1605 432T1436 186Q1322 77 1179 19T883 -39Q749 -39 621 6T385 137Q247 247 174 400T100 729Q100 887 158 1025T328 1272Q438 1379 583 1438T883 1497Q1036 1497 1180 1438T1436 1272Q1547 1164 1605 1025T1663 729ZM883 240Q1082 240 1211 379T1341 729Q1341 937 1210 1079T883 1221Q684 1221 553 1080T422 729Q422 517 551 379T883 240ZM568 1603L764 1972H1002L1198 1603H1057L883 1820L707 1603H568Z"  />
<glyph unicode="&#xD5;" horiz-adv-x="1763" d="M1663 729Q1663 572 1605 432T1436 186Q1322 77 1179 19T883 -39Q749 -39 621 6T385 137Q247 247 174 400T100 729Q100 887 158 1025T328 1272Q438 1379 583 1438T883 1497Q1036 1497 1180 1438T1436 1272Q1547 1164 1605 1025T1663 729ZM883 240Q1082 240 1211 379T1341 729Q1341 937 1210 1079T883 1221Q684 1221 553 1080T422 729Q422 517 551 379T883 240ZM1200 1923Q1172 1796 1122 1739T992 1681Q971 1681 953 1683T917 1692L830 1718Q809 1724 794 1726T764 1728Q730 1728 709 1710T676 1651H566Q592 1773 641 1829T770 1886Q788 1886 810 1883T856 1872L949 1847Q961 1843 974 1841T1004 1839Q1037 1839 1058 1859T1090 1923H1200Z"  />
<glyph unicode="&#xD6;" horiz-adv-x="1763" d="M1663 729Q1663 572 1605 432T1436 186Q1322 77 1179 19T883 -39Q749 -39 621 6T385 137Q247 247 174 400T100 729Q100 887 158 1025T328 1272Q438 1379 583 1438T883 1497Q1036 1497 1180 1438T1436 1272Q1547 1164 1605 1025T1663 729ZM883 240Q1082 240 1211 379T1341 729Q1341 937 1210 1079T883 1221Q684 1221 553 1080T422 729Q422 517 551 379T883 240ZM940 1786Q940 1837 979 1876T1071 1915Q1125 1915 1162 1877T1200 1786Q1200 1729 1164 1692T1071 1655Q1016 1655 978 1692T940 1786ZM566 1786Q566 1837 605 1876T697 1915Q750 1915 788 1877T826 1786Q826 1729 789 1692T697 1655Q641 1655 604 1692T566 1786Z"  />
<glyph unicode="&#xD7;" horiz-adv-x="1706" d="M416 1202L866 752L1317 1202L1458 1063L1008 610L1458 160L1317 20L866 471L416 20L276 160L727 610L276 1063L416 1202Z"  />
<glyph unicode="&#xD8;" horiz-adv-x="1763" d="M1174 1118Q1121 1168 1043 1195T877 1223Q679 1223 551 1080T422 717Q422 643 441 577T504 438L1174 1118ZM598 336Q662 285 729 263T883 240Q1084 240 1212 380T1341 739Q1341 813 1321 879T1257 1014L598 336ZM199 -70L98 23L293 223Q192 341 145 463T98 731Q98 886 157 1026T328 1274Q439 1383 583 1441T885 1499Q1015 1499 1136 1456T1380 1323L1573 1520L1671 1434L1473 1235Q1569 1126 1617 1003T1665 737Q1665 600 1620 476T1487 246Q1374 111 1217 38T883 -35Q754 -35 636 4T393 127L199 -70Z"  />
<glyph unicode="&#xD9;" horiz-adv-x="1583" d="M1423 1464V553Q1423 255 1266 108T793 -39Q472 -39 315 108T158 553V1464H469V602Q469 421 549 330T788 238Q948 238 1030 330T1112 602V1464H1423ZM500 1972H758L955 1603H813L500 1972Z"  />
<glyph unicode="&#xDA;" horiz-adv-x="1583" d="M1423 1464V553Q1423 255 1266 108T793 -39Q472 -39 315 108T158 553V1464H469V602Q469 421 549 330T788 238Q948 238 1030 330T1112 602V1464H1423ZM1086 1972L773 1603H631L828 1972H1086Z"  />
<glyph unicode="&#xDB;" horiz-adv-x="1583" d="M1423 1464V553Q1423 255 1266 108T793 -39Q472 -39 315 108T158 553V1464H469V602Q469 421 549 330T788 238Q948 238 1030 330T1112 602V1464H1423ZM478 1603L674 1972H912L1108 1603H967L793 1820L617 1603H478Z"  />
<glyph unicode="&#xDC;" horiz-adv-x="1583" d="M1423 1464V553Q1423 255 1266 108T793 -39Q472 -39 315 108T158 553V1464H469V602Q469 421 549 330T788 238Q948 238 1030 330T1112 602V1464H1423ZM850 1786Q850 1837 889 1876T981 1915Q1035 1915 1072 1877T1110 1786Q1110 1729 1074 1692T981 1655Q926 1655 888 1692T850 1786ZM476 1786Q476 1837 515 1876T607 1915Q660 1915 698 1877T736 1786Q736 1729 699 1692T607 1655Q551 1655 514 1692T476 1786Z"  />
<glyph unicode="&#xDD;" horiz-adv-x="1241" d="M465 0V668L-31 1464H336L553 1063Q569 1033 586 987T621 881Q635 932 652 977T692 1065L907 1464H1272L778 668V0H465ZM914 1972L601 1603H459L656 1972H914Z"  />
<glyph unicode="&#xDE;" horiz-adv-x="1139" d="M479 549H524Q652 549 710 603T768 774Q768 882 711 930T524 979H479V549ZM164 0V1464H479V1212H524Q811 1212 949 1101T1087 760Q1087 548 949 428T565 307H479V0H164Z"  />
<glyph unicode="&#xDF;" horiz-adv-x="1235" d="M139 0V1034Q139 1160 149 1227T184 1348Q233 1452 344 1510T610 1569Q831 1569 951 1468T1071 1182Q1071 1070 1020 994T844 846Q992 827 1074 722T1157 446Q1157 222 1026 100T651 -23Q626 -23 599 -22T543 -18V211Q558 210 573 210T610 209Q736 209 803 273T870 457Q870 586 796 650T571 715Q571 715 568 714Q555 713 543 713V936H561Q675 936 730 990T786 1153Q786 1236 740 1284T614 1333Q505 1333 465 1249T424 836V725V0H139Z"  />
<glyph unicode="&#xE0;" horiz-adv-x="1251" d="M862 492Q862 624 796 701T616 778Q500 778 434 702T367 492Q367 359 432 285T614 211Q732 211 797 285T862 492ZM1122 0H846L850 141Q792 48 711 5T512 -39Q317 -39 198 106T78 489Q78 737 195 875T522 1014Q631 1014 713 965T852 819V981H1122V0ZM352 1495H610L807 1126H665L352 1495Z"  />
<glyph unicode="&#xE1;" horiz-adv-x="1251" d="M862 492Q862 624 796 701T616 778Q500 778 434 702T367 492Q367 359 432 285T614 211Q732 211 797 285T862 492ZM1122 0H846L850 141Q792 48 711 5T512 -39Q317 -39 198 106T78 489Q78 737 195 875T522 1014Q631 1014 713 965T852 819V981H1122V0ZM938 1495L625 1126H483L680 1495H938Z"  />
<glyph unicode="&#xE2;" horiz-adv-x="1251" d="M862 492Q862 624 796 701T616 778Q500 778 434 702T367 492Q367 359 432 285T614 211Q732 211 797 285T862 492ZM1122 0H846L850 141Q792 48 711 5T512 -39Q317 -39 198 106T78 489Q78 737 195 875T522 1014Q631 1014 713 965T852 819V981H1122V0ZM330 1126L526 1495H764L960 1126H819L645 1343L469 1126H330Z"  />
<glyph unicode="&#xE3;" horiz-adv-x="1251" d="M862 492Q862 624 796 701T616 778Q500 778 434 702T367 492Q367 359 432 285T614 211Q732 211 797 285T862 492ZM1122 0H846L850 141Q792 48 711 5T512 -39Q317 -39 198 106T78 489Q78 737 195 875T522 1014Q631 1014 713 965T852 819V981H1122V0ZM962 1446Q934 1319 884 1262T754 1204Q733 1204 715 1206T679 1215L592 1241Q571 1247 556 1249T526 1251Q492 1251 471 1233T438 1174H328Q354 1296 403 1352T532 1409Q550 1409 572 1406T618 1395L711 1370Q723 1366 736 1364T766 1362Q799 1362 820 1382T852 1446H962Z"  />
<glyph unicode="&#xE4;" horiz-adv-x="1251" d="M862 492Q862 624 796 701T616 778Q500 778 434 702T367 492Q367 359 432 285T614 211Q732 211 797 285T862 492ZM1122 0H846L850 141Q792 48 711 5T512 -39Q317 -39 198 106T78 489Q78 737 195 875T522 1014Q631 1014 713 965T852 819V981H1122V0ZM702 1309Q702 1360 741 1399T833 1438Q887 1438 924 1400T962 1309Q962 1252 926 1215T833 1178Q778 1178 740 1215T702 1309ZM328 1309Q328 1360 367 1399T459 1438Q512 1438 550 1400T588 1309Q588 1252 551 1215T459 1178Q403 1178 366 1215T328 1309Z"  />
<glyph unicode="&#xE5;" horiz-adv-x="1251" d="M506 1343Q506 1292 541 1257T629 1221Q679 1221 715 1257T752 1343Q752 1394 716 1429T629 1464Q577 1464 542 1429T506 1343ZM362 1343Q362 1454 440 1532T629 1610Q739 1610 817 1532T895 1343Q895 1232 818 1155T629 1077Q518 1077 440 1154T362 1343ZM862 492Q862 624 796 701T616 778Q500 778 434 702T367 492Q367 359 432 285T614 211Q732 211 797 285T862 492ZM1122 0H846L850 141Q792 48 711 5T512 -39Q317 -39 198 106T78 489Q78 737 195 875T522 1014Q631 1014 713 965T852 819V981H1122V0Z"  />
<glyph unicode="&#xE6;" horiz-adv-x="1841" d="M1755 420H987Q1004 314 1066 262T1237 209Q1317 209 1376 239T1475 330L1714 213Q1634 89 1516 25T1249 -39Q1133 -39 1044 0T885 121Q809 47 696 4T463 -39Q287 -39 174 57T61 301Q61 449 167 538T451 627Q539 627 612 610T750 556Q753 570 754 582T756 606Q756 700 678 755T467 811Q388 811 317 789T154 711V940Q230 980 314 999T498 1018Q627 1018 725 981T885 870Q960 947 1044 982T1235 1018Q1471 1018 1614 879T1757 510Q1757 480 1757 460T1755 420ZM1462 592Q1450 684 1392 731T1231 778Q1131 778 1073 732T995 592H1462ZM762 309Q762 372 703 410T547 449Q448 449 390 410T332 305Q332 244 385 207T528 170Q637 170 699 207T762 309Z"  />
<glyph unicode="&#xE7;" horiz-adv-x="938" d="M862 29Q804 -6 740 -22T600 -39Q368 -39 222 108T76 492Q76 723 223 868T604 1014Q682 1014 744 999T862 952L860 666Q815 712 756 737T631 762Q511 762 439 689T367 494Q367 370 440 297T639 223Q708 223 761 248T860 326L862 29ZM297 -438V-311Q377 -332 444 -343T555 -354Q606 -354 630 -336T655 -279Q655 -242 628 -227T534 -211Q515 -211 502 -211T477 -213V0H579V-90H594Q710 -90 769 -138T829 -283Q829 -382 763 -431T563 -481Q514 -481 445 -470T297 -438Z"  />
<glyph unicode="&#xE8;" horiz-adv-x="1174" d="M815 592Q803 685 748 732T596 780Q500 780 443 733T369 592H815ZM1097 420H360Q377 314 437 262T600 209Q678 209 734 239T829 330L1059 215Q979 86 865 24T594 -39Q356 -39 217 103T78 485Q78 716 223 865T596 1014Q830 1014 966 875T1102 494Q1102 481 1101 466T1097 420ZM295 1495H553L750 1126H608L295 1495Z"  />
<glyph unicode="&#xE9;" horiz-adv-x="1174" d="M815 592Q803 685 748 732T596 780Q500 780 443 733T369 592H815ZM1097 420H360Q377 314 437 262T600 209Q678 209 734 239T829 330L1059 215Q979 86 865 24T594 -39Q356 -39 217 103T78 485Q78 716 223 865T596 1014Q830 1014 966 875T1102 494Q1102 481 1101 466T1097 420ZM881 1495L568 1126H426L623 1495H881Z"  />
<glyph unicode="&#xEA;" horiz-adv-x="1174" d="M815 592Q803 685 748 732T596 780Q500 780 443 733T369 592H815ZM1097 420H360Q377 314 437 262T600 209Q678 209 734 239T829 330L1059 215Q979 86 865 24T594 -39Q356 -39 217 103T78 485Q78 716 223 865T596 1014Q830 1014 966 875T1102 494Q1102 481 1101 466T1097 420ZM273 1126L469 1495H707L903 1126H762L588 1343L412 1126H273Z"  />
<glyph unicode="&#xEB;" horiz-adv-x="1174" d="M815 592Q803 685 748 732T596 780Q500 780 443 733T369 592H815ZM1097 420H360Q377 314 437 262T600 209Q678 209 734 239T829 330L1059 215Q979 86 865 24T594 -39Q356 -39 217 103T78 485Q78 716 223 865T596 1014Q830 1014 966 875T1102 494Q1102 481 1101 466T1097 420ZM645 1309Q645 1360 684 1399T776 1438Q830 1438 867 1400T905 1309Q905 1252 869 1215T776 1178Q721 1178 683 1215T645 1309ZM271 1309Q271 1360 310 1399T402 1438Q455 1438 493 1400T531 1309Q531 1252 494 1215T402 1178Q346 1178 309 1215T271 1309Z"  />
<glyph unicode="&#xEC;" horiz-adv-x="584" d="M150 0V981H434V0H150ZM1 1495H259L456 1126H314L1 1495Z"  />
<glyph unicode="&#xED;" horiz-adv-x="584" d="M150 0V981H434V0H150ZM587 1495L274 1126H132L329 1495H587Z"  />
<glyph unicode="&#xEE;" horiz-adv-x="584" d="M150 0V981H434V0H150ZM-21 1126L175 1495H413L609 1126H468L294 1343L118 1126H-21Z"  />
<glyph unicode="&#xEF;" horiz-adv-x="584" d="M150 0V981H434V0H150ZM351 1309Q351 1360 390 1399T482 1438Q536 1438 573 1400T611 1309Q611 1252 575 1215T482 1178Q427 1178 389 1215T351 1309ZM-23 1309Q-23 1360 16 1399T108 1438Q161 1438 199 1400T237 1309Q237 1252 200 1215T108 1178Q52 1178 15 1215T-23 1309Z"  />
<glyph unicode="&#xF0;" horiz-adv-x="1276" d="M881 475Q881 590 811 657T623 725Q504 725 435 658T365 475Q365 361 434 293T623 225Q741 225 811 293T881 475ZM813 897Q758 980 697 1045T565 1159L231 999L162 1126L432 1253Q396 1278 357 1300T260 1350L377 1546Q444 1517 518 1473T678 1368L997 1524L1073 1397L809 1270Q996 1093 1080 919T1165 537Q1165 263 1023 112T625 -39Q386 -39 231 105T76 467Q76 675 220 819T573 963Q642 963 701 947T813 897Z"  />
<glyph unicode="&#xF1;" horiz-adv-x="1266" d="M139 0V981H418V827Q495 923 583 968T780 1014Q894 1014 971 976T1094 858Q1116 817 1125 766T1135 604V573V0H850V485Q850 666 808 724T664 782Q605 782 556 758T473 688Q447 653 436 608T424 471V432V0H139ZM950 1446Q922 1319 872 1262T742 1204Q721 1204 703 1206T667 1215L580 1241Q559 1247 544 1249T514 1251Q480 1251 459 1233T426 1174H316Q342 1296 391 1352T520 1409Q538 1409 560 1406T606 1395L699 1370Q711 1366 724 1364T754 1362Q787 1362 808 1382T840 1446H950Z"  />
<glyph unicode="&#xF2;" horiz-adv-x="1247" d="M881 489Q881 609 811 680T623 752Q505 752 436 681T367 489Q367 369 436 297T623 225Q740 225 810 297T881 489ZM1171 487Q1171 261 1017 111T625 -39Q386 -39 231 111T76 487Q76 712 232 863T625 1014Q863 1014 1017 865T1171 487ZM332 1495H590L787 1126H645L332 1495Z"  />
<glyph unicode="&#xF3;" horiz-adv-x="1247" d="M881 489Q881 609 811 680T623 752Q505 752 436 681T367 489Q367 369 436 297T623 225Q740 225 810 297T881 489ZM1171 487Q1171 261 1017 111T625 -39Q386 -39 231 111T76 487Q76 712 232 863T625 1014Q863 1014 1017 865T1171 487ZM918 1495L605 1126H463L660 1495H918Z"  />
<glyph unicode="&#xF4;" horiz-adv-x="1247" d="M881 489Q881 609 811 680T623 752Q505 752 436 681T367 489Q367 369 436 297T623 225Q740 225 810 297T881 489ZM1171 487Q1171 261 1017 111T625 -39Q386 -39 231 111T76 487Q76 712 232 863T625 1014Q863 1014 1017 865T1171 487ZM310 1126L506 1495H744L940 1126H799L625 1343L449 1126H310Z"  />
<glyph unicode="&#xF5;" horiz-adv-x="1247" d="M881 489Q881 609 811 680T623 752Q505 752 436 681T367 489Q367 369 436 297T623 225Q740 225 810 297T881 489ZM1171 487Q1171 261 1017 111T625 -39Q386 -39 231 111T76 487Q76 712 232 863T625 1014Q863 1014 1017 865T1171 487ZM942 1446Q914 1319 864 1262T734 1204Q713 1204 695 1206T659 1215L572 1241Q551 1247 536 1249T506 1251Q472 1251 451 1233T418 1174H308Q334 1296 383 1352T512 1409Q530 1409 552 1406T598 1395L691 1370Q703 1366 716 1364T746 1362Q779 1362 800 1382T832 1446H942Z"  />
<glyph unicode="&#xF6;" horiz-adv-x="1247" d="M881 489Q881 609 811 680T623 752Q505 752 436 681T367 489Q367 369 436 297T623 225Q740 225 810 297T881 489ZM1171 487Q1171 261 1017 111T625 -39Q386 -39 231 111T76 487Q76 712 232 863T625 1014Q863 1014 1017 865T1171 487ZM682 1309Q682 1360 721 1399T813 1438Q867 1438 904 1400T942 1309Q942 1252 906 1215T813 1178Q758 1178 720 1215T682 1309ZM308 1309Q308 1360 347 1399T439 1438Q492 1438 530 1400T568 1309Q568 1252 531 1215T439 1178Q383 1178 346 1215T308 1309Z"  />
<glyph unicode="&#xF7;" horiz-adv-x="1706" d="M854 369Q916 369 961 324T1006 217Q1006 156 961 112T854 68Q791 68 747 111T702 217Q702 280 746 324T854 369ZM254 711H1452V512H254V711ZM854 1155Q916 1155 961 1111T1006 1004Q1006 941 962 897T854 852Q791 852 747 896T702 1004Q702 1067 746 1111T854 1155Z"  />
<glyph unicode="&#xF8;" horiz-adv-x="1247" d="M467 270Q503 247 540 236T629 225Q744 225 814 298T885 489Q885 524 877 555T848 623L467 270ZM770 713Q732 733 695 742T614 752Q501 752 433 680T365 485Q365 451 371 422T389 365L770 713ZM115 -55L43 45L182 172Q130 235 104 313T78 485Q78 713 233 863T625 1014Q730 1014 811 988T977 903L1120 1036L1206 950L1059 813Q1118 742 1144 663T1171 479Q1171 260 1016 111T625 -39Q515 -39 423 -8T266 84L115 -55Z"  />
<glyph unicode="&#xF9;" horiz-adv-x="1268" d="M418 981V465Q418 335 468 279T633 223Q746 223 797 279T848 465V981H1133V465Q1133 206 1012 84T637 -39Q378 -39 257 83T135 465V981H418ZM342 1495H600L797 1126H655L342 1495Z"  />
<glyph unicode="&#xFA;" horiz-adv-x="1268" d="M418 981V465Q418 335 468 279T633 223Q746 223 797 279T848 465V981H1133V465Q1133 206 1012 84T637 -39Q378 -39 257 83T135 465V981H418ZM928 1495L615 1126H473L670 1495H928Z"  />
<glyph unicode="&#xFB;" horiz-adv-x="1268" d="M418 981V465Q418 335 468 279T633 223Q746 223 797 279T848 465V981H1133V465Q1133 206 1012 84T637 -39Q378 -39 257 83T135 465V981H418ZM320 1126L516 1495H754L950 1126H809L635 1343L459 1126H320Z"  />
<glyph unicode="&#xFC;" horiz-adv-x="1268" d="M418 981V465Q418 335 468 279T633 223Q746 223 797 279T848 465V981H1133V465Q1133 206 1012 84T637 -39Q378 -39 257 83T135 465V981H418ZM692 1309Q692 1360 731 1399T823 1438Q877 1438 914 1400T952 1309Q952 1252 916 1215T823 1178Q768 1178 730 1215T692 1309ZM318 1309Q318 1360 357 1399T449 1438Q502 1438 540 1400T578 1309Q578 1252 541 1215T449 1178Q393 1178 356 1215T318 1309Z"  />
<glyph unicode="&#xFD;" horiz-adv-x="1053" d="M381 76L-14 981H315L485 532Q502 490 513 436T530 314Q540 368 555 424T592 543L741 981H1067L483 -446H168L381 76ZM819 1495L506 1126H364L561 1495H819Z"  />
<glyph unicode="&#xFE;" horiz-adv-x="1266" d="M399 492Q399 359 464 285T647 211Q765 211 830 284T895 492Q895 625 829 701T645 778Q532 778 466 702T399 492ZM414 141Q419 107 421 69T424 -39V-446H139V1550H424V958Q424 919 421 886T412 819Q468 917 549 965T739 1014Q948 1014 1066 876T1184 489Q1184 250 1065 106T752 -39Q635 -39 554 4T414 141Z"  />
<glyph unicode="&#xFF;" horiz-adv-x="1053" d="M381 76L-14 981H315L485 532Q502 490 513 436T530 314Q540 368 555 424T592 543L741 981H1067L483 -446H168L381 76ZM583 1309Q583 1360 622 1399T714 1438Q768 1438 805 1400T843 1309Q843 1252 807 1215T714 1178Q659 1178 621 1215T583 1309ZM209 1309Q209 1360 248 1399T340 1438Q393 1438 431 1400T469 1309Q469 1252 432 1215T340 1178Q284 1178 247 1215T209 1309Z"  />
<glyph unicode="&#x131;" horiz-adv-x="584" d="M150 0V981H434V0H150Z"  />
<glyph unicode="&#x152;" horiz-adv-x="2339" d="M1346 1464H2208V1200H1659V899H2208V633H1659V266H2208V0H1346L1343 166Q1268 63 1155 14T881 -35Q748 -35 624 9T395 139Q261 251 188 405T115 731Q115 884 172 1023T340 1276Q450 1388 584 1442T881 1497Q1033 1497 1147 1447T1348 1292L1346 1464ZM889 240Q1090 240 1214 375T1339 729Q1339 945 1214 1084T889 1223Q695 1223 567 1081T438 729Q438 516 564 378T889 240Z"  />
<glyph unicode="&#x153;" horiz-adv-x="2050" d="M1651 592Q1638 684 1580 732T1419 780Q1320 780 1261 733T1184 592H1651ZM1943 420H1176Q1192 314 1254 262T1425 209Q1506 209 1564 239T1663 330L1905 215Q1825 90 1706 26T1432 -39Q1288 -39 1181 8T1018 141Q940 47 845 4T616 -39Q383 -39 230 111T76 487Q76 713 232 863T627 1014Q761 1014 855 968T1016 825Q1085 923 1180 968T1413 1014Q1659 1014 1802 878T1946 510Q1946 480 1946 461T1943 420ZM881 487Q881 608 811 680T623 752Q505 752 435 680T365 487Q365 367 435 295T623 223Q740 223 810 295T881 487Z"  />
<glyph unicode="&#x160;" horiz-adv-x="1147" d="M70 186L244 383Q277 302 350 256T514 209Q624 209 688 261T752 401Q752 505 539 608Q470 641 430 662Q238 762 164 857T90 1085Q90 1266 233 1382T606 1499Q739 1499 835 1453T1006 1307L821 1130Q788 1194 734 1225T602 1257Q509 1257 452 1211T395 1090Q395 974 621 878Q666 859 690 848Q876 763 965 656T1055 412Q1055 206 915 84T537 -39Q369 -39 249 19T70 186ZM258 1972H397L573 1755L747 1972H888L692 1603H454L258 1972Z"  />
<glyph unicode="&#x161;" horiz-adv-x="934" d="M43 172L262 285Q273 228 321 195T440 162Q510 162 550 187T590 258Q590 329 448 377Q404 392 378 402Q205 467 139 533T72 696Q72 840 185 929T483 1018Q615 1018 711 965T852 815L643 711Q626 766 584 794T479 823Q416 823 377 797T338 729Q338 656 532 593Q555 586 567 582Q728 529 796 459T864 279Q864 133 751 47T446 -39Q294 -39 187 17T43 172ZM153 1495H292L468 1278L642 1495H783L587 1126H349L153 1495Z"  />
<glyph unicode="&#x178;" horiz-adv-x="1241" d="M465 0V668L-31 1464H336L553 1063Q569 1033 586 987T621 881Q635 932 652 977T692 1065L907 1464H1272L778 668V0H465ZM678 1786Q678 1837 717 1876T809 1915Q863 1915 900 1877T938 1786Q938 1729 902 1692T809 1655Q754 1655 716 1692T678 1786ZM304 1786Q304 1837 343 1876T435 1915Q488 1915 526 1877T564 1786Q564 1729 527 1692T435 1655Q379 1655 342 1692T304 1786Z"  />
<glyph unicode="&#x17D;" horiz-adv-x="1298" d="M1235 0H6L764 1214H84V1464H1266L508 252H1235V0ZM334 1972H473L649 1755L823 1972H964L768 1603H530L334 1972Z"  />
<glyph unicode="&#x17E;" horiz-adv-x="985" d="M940 0H0L520 758H63V981H952L438 223H940V0ZM180 1495H319L495 1278L669 1495H810L614 1126H376L180 1495Z"  />
<glyph unicode="&#x192;" horiz-adv-x="1255" d="M958 737H756L668 25Q634 -248 552 -349T297 -451Q254 -451 217 -440T139 -406L184 -201Q208 -211 228 -216T264 -221Q333 -221 363 -171T416 86L492 737H303L322 948H518L535 1100Q558 1298 630 1388T838 1479Q887 1479 938 1469T1042 1438L1024 1235Q979 1255 958 1261T918 1268Q862 1268 836 1229T793 1057L780 948H981L958 737Z"  />
<glyph unicode="&#x2C6;" horiz-adv-x="1024" d="M197 1126L393 1495H631L827 1126H686L512 1343L336 1126H197Z"  />
<glyph unicode="&#x2C7;" horiz-adv-x="1024" d="M197 1495H336L512 1278L686 1495H827L631 1126H393L197 1495Z"  />
<glyph unicode="&#x2DC;" horiz-adv-x="1024" d="M829 1446Q801 1319 751 1262T621 1204Q600 1204 582 1206T546 1215L459 1241Q438 1247 423 1249T393 1251Q359 1251 338 1233T305 1174H195Q221 1296 270 1352T399 1409Q417 1409 439 1406T485 1395L578 1370Q590 1366 603 1364T633 1362Q666 1362 687 1382T719 1446H829Z"  />
<glyph unicode="&#x2013;" horiz-adv-x="1024" d="M0 393V584H1024V393H0Z"  />
<glyph unicode="&#x2014;" horiz-adv-x="2048" d="M0 393V584H2048V393H0Z"  />
<glyph unicode="&#x2018;" horiz-adv-x="629" d="M563 1464L373 838H63L373 1464H563Z"  />
<glyph unicode="&#x2019;" horiz-adv-x="629" d="M63 838L256 1464H563L254 838H63Z"  />
<glyph unicode="&#x201A;" horiz-adv-x="629" d="M63 -332L256 295H563L254 -332H63Z"  />
<glyph unicode="&#x201C;" horiz-adv-x="1090" d="M1038 1464L848 838H539L848 1464H1038ZM551 1464L360 838H51L360 1464H551Z"  />
<glyph unicode="&#x201D;" horiz-adv-x="1090" d="M51 838L244 1464H551L242 838H51ZM539 838L729 1464H1038L729 838H539Z"  />
<glyph unicode="&#x201E;" horiz-adv-x="1090" d="M539 -332L729 295H1038L729 -332H539ZM51 -332L244 295H551L242 -332H51Z"  />
<glyph unicode="&#x2020;" horiz-adv-x="1176" d="M446 -446V705H66V961H446V1464H729V961H1110V705H729V-446H446Z"  />
<glyph unicode="&#x2021;" horiz-adv-x="1176" d="M444 -446V25H66V256H444V844H66V1077H444V1464H729V1077H1110V844H729V256H1110V25H729V-446H444Z"  />
<glyph unicode="&#x2022;" horiz-adv-x="1208" d="M307 762Q307 885 394 971T604 1057Q726 1057 812 971T899 762Q899 640 812 553T602 465Q479 465 393 552T307 762Z"  />
<glyph unicode="&#x2026;" horiz-adv-x="2048" d="M168 141Q168 213 218 264T340 315Q411 315 461 264T512 141Q512 70 462 21T340 -29Q269 -29 219 21T168 141ZM850 141Q850 213 900 264T1022 315Q1093 315 1143 264T1194 141Q1194 70 1144 21T1022 -29Q951 -29 901 21T850 141ZM1534 141Q1534 213 1584 264T1706 315Q1777 315 1827 264T1878 141Q1878 70 1828 21T1706 -29Q1635 -29 1585 21T1534 141Z"  />
<glyph unicode="&#x2030;" horiz-adv-x="2558" d="M741 1075Q741 884 649 777T391 670Q225 670 132 776T39 1075Q39 1264 132 1371T391 1479Q558 1479 649 1373T741 1075ZM254 1075Q254 950 290 882T391 813Q459 813 493 879T528 1075Q528 1202 493 1268T391 1335Q325 1335 290 1268T254 1075ZM510 -39H360L1217 1479H1366L510 -39ZM1692 367Q1692 176 1599 69T1339 -39Q1173 -39 1080 68T987 367Q987 556 1080 663T1339 770Q1507 770 1599 665T1692 367ZM1202 365Q1202 240 1238 172T1339 104Q1407 104 1443 171T1479 367Q1479 493 1444 560T1341 627Q1275 627 1239 559T1202 365ZM2519 367Q2519 175 2427 68T2169 -39Q2003 -39 1910 68T1817 367Q1817 556 1910 663T2169 770Q2336 770 2427 665T2519 367ZM2030 365Q2030 240 2065 172T2167 104Q2235 104 2270 171T2306 367Q2306 493 2271 560T2169 627Q2102 627 2066 559T2030 365Z"  />
<glyph unicode="&#x2039;" horiz-adv-x="639" d="M575 836L297 485L567 139L418 33L66 487L422 942L575 836Z"  />
<glyph unicode="&#x203A;" horiz-adv-x="639" d="M66 836L219 942L575 487L221 33L72 139L342 485L66 836Z"  />
<glyph unicode="&#x2122;" horiz-adv-x="1706" d="M803 1462H999L1126 1130L1249 1462H1446V915H1311V1325L1157 915H1096L938 1325V915H803V1462ZM207 1462H692V1350H524V915H375V1350H207V1462Z"  />

</font>
</defs>
</svg>
