<?xml  version="1.0" encoding="UTF-8"?>
<!DOCTYPE svg PUBLIC "-//W3C//DTD SVG 1.0//EN" "http://www.w3.org/TR/2001/REC-SVG-20010904/DTD/svg10.dtd" >
<svg xmlns="http://www.w3.org/2000/svg" >
<metadata>
<version>1.0</version>
<id><![CDATA[Futura BT W01 Book]]></id>
<vendor>Monotype Imaging Inc.</vendor>
<credits>
<name>Fonts.com WebFonts</name>
<URL>http://webfonts.fonts.com</URL>
<role>Home of the Web fonts</role>
</credits>
<license>
<URL>http://webfonts.fonts.com/Legal</URL>
</license>
<copyright><![CDATA[Copyright 1990-2003 Bitstream Inc. All rights reserved.]]></copyright>
<trademark></trademark>
<licensee>
<name></name>
</licensee>
</metadata>
<defs >
<font horiz-adv-x="1138" id="d37fcd2f-d43f-4eae-b192-c48028c02797">
<font-face font-family="" panose-1="2 11 5 2 2 2 4 2 3 3" ascent="1972" descent="-483" units-per-em="2048" alphabetic="0">
</font-face>
<missing-glyph horiz-adv-x="604" />

<glyph unicode="&#xA;" horiz-adv-x="0" />
<glyph unicode="&#xD;" horiz-adv-x="1208" />
<glyph unicode=" " horiz-adv-x="604" />
<glyph unicode="!" horiz-adv-x="653" d="M209 80Q209 129 244 164T328 199Q377 199 411 164T446 80Q446 30 412 -4T328 -39Q278 -39 244 -5T209 80ZM248 332V1497H408V332H248Z"  />
<glyph unicode="&quot;" horiz-adv-x="590" d="M496 1434V881H377V1434H496ZM211 1434V881H94V1434H211Z"  />
<glyph unicode="#" horiz-adv-x="1575" d="M973 862H709L614 590H877L973 862ZM922 1456L756 985H1016L1184 1456H1327L1163 985H1470L1427 862H1116L1022 590H1352L1309 467H977L811 -2H666L834 467H569L401 -2H258L424 467H104L147 590H467L563 862H221L264 985H608L776 1456H922Z"  />
<glyph unicode="$" horiz-adv-x="1208" d="M614 877Q826 803 924 690T1022 403Q1022 217 913 99T614 -37V-186H535V-39Q366 -31 262 57T127 305L274 395Q302 265 366 196T535 115V719Q348 791 260 891T172 1135Q172 1289 267 1386T535 1503V1602H614L615 1503Q737 1494 823 1439T961 1282L811 1188Q780 1263 731 1304T614 1352V877ZM535 1354Q448 1337 397 1283T346 1153Q346 1068 389 1012T535 913V1354ZM614 115Q734 138 792 207T850 393Q850 496 796 564T614 684V115Z"  />
<glyph unicode="%" horiz-adv-x="1516" d="M1466 340Q1466 160 1388 61T1167 -39Q1026 -39 946 61T866 340Q866 519 946 619T1167 719Q1309 719 1387 619T1466 340ZM1167 63Q1241 63 1281 135T1321 340Q1321 477 1282 546T1167 616Q1094 616 1054 545T1014 340Q1014 207 1054 135T1167 63ZM358 823Q432 823 472 895T512 1100Q512 1237 473 1307T358 1378Q285 1378 245 1306T205 1100Q205 967 245 895T358 823ZM659 1100Q659 921 580 822T358 723Q216 723 137 822T57 1100Q57 1279 137 1379T358 1479Q500 1479 579 1379T659 1100ZM272 -39L1114 1479H1237L397 -39H272Z"  />
<glyph unicode="&amp;" horiz-adv-x="1370" d="M868 289L514 717L471 688Q351 606 306 540T260 393Q260 277 336 200T528 123Q610 123 692 163T868 289ZM575 897L639 934Q707 976 741 1029T776 1145Q776 1220 729 1265T604 1311Q528 1311 480 1263T432 1141Q432 1104 445 1069T485 1004L575 897ZM1106 0L965 170Q868 72 757 23T520 -27Q326 -27 206 88T86 387Q86 518 169 629T422 838L362 905Q314 962 291 1021T268 1149Q268 1285 361 1370T604 1456Q755 1456 845 1372T936 1149Q936 1041 873 954T670 782L989 397Q1029 441 1072 497T1163 625L1270 508Q1227 443 1181 387T1083 281L1317 0H1106Z"  />
<glyph unicode="&apos;" horiz-adv-x="305" d="M211 1434V881H94V1434H211Z"  />
<glyph unicode="(" horiz-adv-x="590" d="M510 -393L403 -449Q285 -228 226 19T166 541Q166 832 224 1077T403 1534L510 1485Q402 1272 351 1042T299 541Q299 262 351 33T510 -393Z"  />
<glyph unicode=")" horiz-adv-x="590" d="M80 -393Q187 -196 239 33T291 541Q291 811 240 1041T80 1485L186 1534Q307 1322 365 1077T424 541Q424 267 365 20T186 -449L80 -393Z"  />
<glyph unicode="*" horiz-adv-x="848" d="M152 899L102 987L326 1116L102 1245L154 1333L379 1202L377 1464H479L477 1208L696 1333L745 1243L526 1116L745 991L696 901L479 1026V776H377V1030L152 899Z"  />
<glyph unicode="+" horiz-adv-x="1706" d="M913 1221V670H1452V553H913V0H795V553H254V670H795V1221H913Z"  />
<glyph unicode="&#x2c;" horiz-adv-x="604" d="M121 -291L311 254L481 195L236 -336L121 -291Z"  />
<glyph unicode="-" horiz-adv-x="750" d="M141 535H608V377H141V535Z"  />
<glyph unicode="." horiz-adv-x="604" d="M182 98Q182 147 217 182T301 217Q351 217 386 183T422 98Q422 49 387 16T301 -18Q251 -18 217 15T182 98Z"  />
<glyph unicode="/" horiz-adv-x="854" d="M717 1497H854L135 -190H0L717 1497Z"  />
<glyph unicode="0" horiz-adv-x="1208" d="M606 -39Q369 -39 233 163T96 721Q96 1074 231 1276T602 1479Q842 1479 977 1279T1112 721Q1112 364 978 163T606 -39ZM604 104Q765 104 848 260T932 719Q932 1022 849 1179T604 1337Q449 1337 363 1176T276 723Q276 430 362 267T604 104Z"  />
<glyph unicode="1" horiz-adv-x="1208" d="M559 0V1298H260L358 1450H729V0H559Z"  />
<glyph unicode="2" horiz-adv-x="1208" d="M997 166V0H115L424 367Q455 403 513 472Q870 895 870 1063Q870 1176 791 1247T582 1319Q443 1319 369 1242T295 1018V1001H131Q131 1008 130 1021T129 1040Q129 1248 250 1363T588 1479Q801 1479 921 1372T1042 1073Q1042 935 961 788T672 414L442 166H997Z"  />
<glyph unicode="3" horiz-adv-x="1208" d="M113 371H291V354Q291 242 364 177T563 111Q708 111 787 184T866 393Q866 535 786 607T547 680Q527 680 517 680T496 678V821Q504 821 519 820T543 819Q694 819 771 885T848 1081Q848 1196 778 1263T588 1331Q460 1331 389 1269T311 1087L139 1088Q149 1277 265 1378T592 1479Q794 1479 912 1374T1030 1090Q1030 960 962 870T770 748Q901 726 975 631T1049 387Q1049 188 919 75T557 -39Q354 -39 234 65T113 344V371Z"  />
<glyph unicode="4" horiz-adv-x="1208" d="M731 0V315H45L829 1479H903V457H1075V315H903V0H731ZM731 457V1100L303 457H731Z"  />
<glyph unicode="5" horiz-adv-x="1208" d="M213 731L180 737L354 1450H997V1300H473L381 924Q431 950 488 963T608 977Q823 977 948 849T1073 500Q1073 250 929 106T535 -39Q384 -39 277 13T94 176L217 319Q266 219 348 166T539 113Q697 113 793 214T889 483Q889 643 790 739T524 836Q437 836 359 810T213 731Z"  />
<glyph unicode="6" horiz-adv-x="1208" d="M299 426Q299 278 381 192T602 106Q738 106 820 194T903 428Q903 578 820 665T592 752Q461 752 380 662T299 426ZM416 827Q470 863 525 880T641 897Q838 897 960 772T1083 444Q1083 223 944 92T567 -39Q366 -39 243 93T119 440Q119 647 394 1037L403 1050L737 1522L889 1442L416 827Z"  />
<glyph unicode="7" horiz-adv-x="1208" d="M231 18L856 1298H178V1450H1106L375 -55L231 18Z"  />
<glyph unicode="8" horiz-adv-x="1208" d="M606 1346Q486 1346 416 1281T346 1102Q346 990 414 927T602 864Q726 864 795 926T864 1102Q864 1215 795 1280T606 1346ZM604 102Q749 102 830 180T911 397Q911 538 830 618T604 698Q461 698 379 618T297 397Q297 258 378 180T604 102ZM414 774Q290 813 228 897T166 1112Q166 1273 288 1376T606 1479Q807 1479 925 1375T1044 1098Q1044 979 980 894T797 774Q940 733 1019 632T1098 389Q1098 189 968 75T606 -39Q378 -39 246 75T113 385Q113 531 191 633T414 774Z"  />
<glyph unicode="9" horiz-adv-x="1208" d="M899 1014Q899 1162 817 1248T596 1335Q460 1335 378 1247T295 1014Q295 863 377 777T604 690Q735 690 817 780T899 1014ZM782 614Q728 579 673 562T557 545Q360 545 238 670T115 997Q115 1219 253 1349T629 1479Q830 1479 953 1347T1077 999Q1077 792 802 402L795 392L461 -80L309 -2L782 614Z"  />
<glyph unicode=":" horiz-adv-x="653" d="M209 772Q209 821 244 856T328 891Q377 891 411 856T446 772Q446 722 412 688T328 653Q278 653 244 687T209 772ZM209 100Q209 149 243 183T328 217Q377 217 411 183T446 100Q446 51 412 17T328 -18Q278 -18 244 16T209 100Z"  />
<glyph unicode=";" horiz-adv-x="653" d="M285 772Q285 821 319 856T403 891Q453 891 487 856T522 772Q522 722 488 688T403 653Q353 653 319 687T285 772ZM131 -291L322 254L492 195L244 -336L131 -291Z"  />
<glyph unicode="&lt;" horiz-adv-x="1706" d="M1442 1018L442 610L1442 205V76L264 559V662L1442 1145V1018Z"  />
<glyph unicode="=" horiz-adv-x="1706" d="M1452 477V360H254V477H1452ZM1452 860V743H254V860H1452Z"  />
<glyph unicode="&gt;" horiz-adv-x="1706" d="M1442 662V559L264 76V205L1264 610L264 1018V1145L1442 662Z"  />
<glyph unicode="?" horiz-adv-x="1067" d="M680 666H834V633Q834 481 754 398T526 315Q388 315 310 393T231 608Q231 699 281 771T475 944Q491 955 520 975Q709 1102 709 1196Q709 1265 661 1306T532 1348Q443 1348 395 1293T346 1135H184V1161Q184 1313 279 1405T530 1497Q695 1497 789 1412T883 1178Q883 1087 828 1013T618 836Q603 825 574 807Q395 691 395 588Q395 532 432 497T528 461Q604 461 642 510T680 657V666ZM391 80Q391 129 426 164T510 199Q559 199 594 164T629 80Q629 30 595 -4T510 -39Q460 -39 426 -5T391 80Z"  />
<glyph unicode="@" horiz-adv-x="2048" d="M1292 844L1350 965H1460L1319 397Q1313 373 1310 353T1307 317Q1307 273 1334 250T1417 227Q1462 227 1517 251T1620 315Q1709 391 1759 511T1810 766Q1810 1032 1615 1194T1096 1356Q928 1356 784 1304T524 1151Q384 1029 313 869T242 514Q242 341 302 210T489 -20Q590 -101 729 -144T1024 -188Q1196 -188 1358 -140T1655 0L1700 -66Q1553 -175 1387 -231T1040 -287Q849 -287 692 -241T416 -102Q263 15 188 170T113 522Q113 685 163 831T313 1100Q459 1276 662 1367T1116 1458Q1281 1458 1427 1415T1675 1290Q1804 1191 1870 1060T1937 778Q1937 609 1875 470T1692 233Q1623 178 1544 150T1380 121Q1281 121 1232 160T1182 276Q1182 279 1183 287T1184 299Q1133 212 1057 167T887 121Q734 121 654 206T573 453Q573 683 710 842T1042 1001Q1133 1001 1195 962T1292 844ZM1202 473L1262 715Q1245 805 1190 855T1055 905Q909 905 811 774T713 446Q713 336 764 277T909 217Q1011 217 1092 287T1202 473Z"  />
<glyph unicode="A" horiz-adv-x="1280" d="M639 1137L406 598H872L639 1137ZM639 1522L1305 0H1116L926 449H354L164 0H-25L639 1522Z"  />
<glyph unicode="B" horiz-adv-x="1151" d="M176 0V1464H481Q642 1464 718 1448T850 1391Q920 1339 958 1258T997 1079Q997 963 942 885T780 776Q910 756 985 660T1061 416Q1061 328 1029 248T940 111Q878 50 787 25T481 0H176ZM346 686V152H481Q620 152 681 163T780 201Q825 233 851 290T877 416Q877 496 846 555T756 647Q721 668 675 677T532 686H481H346ZM346 1313V823H481Q667 823 743 877T819 1059Q819 1200 749 1256T481 1313H346Z"  />
<glyph unicode="C" horiz-adv-x="1485" d="M1364 1114Q1259 1228 1140 1282T877 1337Q761 1337 651 1290T459 1159Q375 1072 333 965T291 727Q291 625 316 539T391 381Q479 256 607 189T885 121Q1025 121 1145 179T1364 352V121Q1255 42 1130 2T870 -39Q754 -39 644 -5T438 96Q278 207 194 369T109 725Q109 894 165 1032T338 1284Q450 1392 586 1445T883 1499Q1010 1499 1129 1461T1364 1341V1114Z"  />
<glyph unicode="D" horiz-adv-x="1485" d="M352 164H463Q733 164 837 187T1010 268Q1100 343 1147 461T1194 733Q1194 887 1148 1003T1010 1196Q941 1254 835 1278T463 1303H352V164ZM176 0V1464H457Q769 1464 896 1433T1120 1327Q1246 1230 1311 1079T1376 731Q1376 535 1312 385T1120 137Q1024 63 902 32T520 0H457H176Z"  />
<glyph unicode="E" horiz-adv-x="1067" d="M176 0V1464H948V1305H350V885H948V723H350V162H948V0H176Z"  />
<glyph unicode="F" horiz-adv-x="1038" d="M176 0V1464H948V1305H350V885H948V723H350V0H176Z"  />
<glyph unicode="G" horiz-adv-x="1667" d="M981 756H1585V707Q1585 361 1389 161T854 -39Q751 -39 658 -17T485 47Q305 146 207 320T109 717Q109 900 167 1047T344 1307Q443 1401 574 1449T864 1497Q1075 1497 1230 1421T1487 1190L1341 1073Q1262 1206 1144 1272T870 1339Q615 1339 456 1167T297 717Q297 455 458 287T870 119Q1090 119 1236 252T1399 600H981V756Z"  />
<glyph unicode="H" horiz-adv-x="1479" d="M176 0V1464H350V901H1128V1464H1305V0H1128V735H350V0H176Z"  />
<glyph unicode="I" horiz-adv-x="530" d="M178 0V1464H352V0H178Z"  />
<glyph unicode="J" horiz-adv-x="793" d="M455 1464H631V322Q631 138 550 50T299 -39Q209 -39 137 -4T0 106L115 221Q169 165 215 141T311 117Q390 117 422 176T455 408V1464Z"  />
<glyph unicode="K" horiz-adv-x="1210" d="M176 0V1464H348V813L963 1464H1171L543 805L1233 0H1008L348 788V0H176Z"  />
<glyph unicode="L" horiz-adv-x="934" d="M176 0V1464H350V166H903V0H176Z"  />
<glyph unicode="M" horiz-adv-x="1716" d="M858 -57L403 995L219 0H49L346 1522L858 311L1370 1522L1667 0H1497L1311 995L858 -57Z"  />
<glyph unicode="N" horiz-adv-x="1587" d="M176 0V1522L1247 352V1464H1413V-57L342 1100V0H176Z"  />
<glyph unicode="O" horiz-adv-x="1782" d="M891 125Q1011 125 1119 170T1315 303Q1401 389 1446 498T1491 729Q1491 852 1446 963T1315 1159Q1229 1245 1121 1290T891 1335Q769 1335 660 1290T467 1159Q381 1072 336 962T291 729Q291 607 335 499T467 303Q555 215 662 170T891 125ZM1673 729Q1673 572 1615 433T1446 186Q1335 78 1191 20T891 -39Q736 -39 593 19T338 186Q226 295 168 434T109 729Q109 886 167 1025T338 1274Q448 1381 592 1439T891 1497Q1047 1497 1191 1439T1446 1274Q1557 1166 1615 1027T1673 729Z"  />
<glyph unicode="P" horiz-adv-x="1040" d="M346 657V0H176V1464H483Q644 1464 720 1447T852 1391Q922 1341 961 1254T1001 1061Q1001 955 962 868T852 731Q796 691 721 674T483 657H434H346ZM346 815H434Q658 815 735 867T813 1051Q813 1191 734 1248T434 1305H346V815Z"  />
<glyph unicode="Q" horiz-adv-x="1782" d="M1075 522L1292 289Q1386 363 1436 476T1487 723Q1487 813 1466 894T1405 1042Q1322 1179 1188 1254T891 1329Q770 1329 661 1284T467 1155Q383 1071 338 962T293 731Q293 576 355 452T543 238Q614 186 699 160T877 133Q959 133 1029 149T1159 199L860 522H1075ZM1692 -141H1477L1282 68Q1195 17 1092 -8T866 -33Q742 -33 630 3T422 111Q268 224 189 382T109 731Q109 884 168 1024T338 1274Q450 1382 592 1439T891 1497Q1047 1497 1184 1446T1432 1294Q1550 1187 1612 1042T1675 729Q1675 553 1608 408T1413 160L1692 -141Z"  />
<glyph unicode="R" horiz-adv-x="1096" d="M176 0V1464H520Q667 1464 735 1448T856 1391Q921 1340 957 1255T993 1065Q993 885 893 792T598 698H567L1126 0H905L371 698H346V0H176ZM346 1317V827H479Q683 827 752 879T821 1063Q821 1204 750 1260T479 1317H346Z"  />
<glyph unicode="S" horiz-adv-x="1053" d="M709 813Q852 752 924 651T997 412Q997 210 869 87T528 -37Q355 -37 238 51T80 303L238 381Q270 248 343 180T528 111Q659 111 740 186T821 383Q821 481 765 553T594 676L416 752Q270 813 199 909T127 1139Q127 1295 243 1397T539 1499Q671 1499 767 1443T918 1278L774 1186Q725 1271 664 1312T526 1354Q428 1354 366 1294T303 1141Q303 1063 351 1006T500 905L709 813Z"  />
<glyph unicode="T" horiz-adv-x="1038" d="M432 0V1298H18V1464H1020V1298H608V0H432Z"  />
<glyph unicode="U" horiz-adv-x="1475" d="M170 1464H346V553Q346 331 440 227T737 123Q939 123 1033 227T1128 553V1464H1305V553Q1305 256 1164 109T737 -39Q453 -39 312 108T170 553V1464Z"  />
<glyph unicode="V" horiz-adv-x="1188" d="M594 -57L-25 1464H164L594 344L1022 1464H1210L594 -57Z"  />
<glyph unicode="W" horiz-adv-x="1870" d="M-14 1464H174L545 387L932 1522L1323 387L1696 1464H1884L1317 -57L934 1075L553 -57L-14 1464Z"  />
<glyph unicode="X" horiz-adv-x="1083" d="M-12 0L438 778L18 1464H227L541 907L844 1464H1042L627 762L1094 0H889L528 631L186 0H-12Z"  />
<glyph unicode="Y" horiz-adv-x="1171" d="M498 0V670L2 1464H203L586 829L967 1464H1167L672 670V0H498Z"  />
<glyph unicode="Z" horiz-adv-x="1159" d="M-10 0L813 1305H145V1464H1108L293 166H1075V0H-10Z"  />
<glyph unicode="[" horiz-adv-x="590" d="M330 -276H512V-412H188V1497H512V1362H330V-276Z"  />
<glyph unicode="\" horiz-adv-x="854" d="M717 -190L0 1497H135L854 -190H717Z"  />
<glyph unicode="]" horiz-adv-x="590" d="M260 -276V1362H78V1497H401V-412H78V-276H260Z"  />
<glyph unicode="^" horiz-adv-x="2048" d="M1104 1458L1624 901H1466L1024 1339L582 901H422L942 1458H1104Z"  />
<glyph unicode="_" horiz-adv-x="1024" d="M1024 -365V-483H0V-365H1024Z"  />
<glyph unicode="`" horiz-adv-x="1024" d="M655 1059H535L250 1407H451L655 1059Z"  />
<glyph unicode="a" horiz-adv-x="1165" d="M860 449Q860 604 776 698T555 793Q414 793 335 706T256 463Q256 297 335 207T561 117Q701 117 780 204T860 449ZM1012 915V0H860V166Q805 66 720 14T528 -39Q331 -39 211 96T90 455Q90 681 207 814T520 948Q635 948 719 897T856 743V915H1012Z"  />
<glyph unicode="b" horiz-adv-x="1171" d="M309 453Q309 293 391 203T616 113Q756 113 835 208T915 473Q915 623 837 708T621 793Q481 793 395 700T309 453ZM160 1550H315V743Q368 845 452 896T649 948Q846 948 963 814T1081 455Q1081 232 961 97T643 -39Q537 -39 450 14T309 166V0H160V1550Z"  />
<glyph unicode="c" horiz-adv-x="920" d="M862 217V35Q800 -2 723 -20T555 -39Q343 -39 214 95T84 449Q84 669 218 808T561 948Q637 948 709 932T846 885V717Q786 756 722 776T592 797Q438 797 345 701T252 444Q252 303 345 208T580 113Q651 113 719 138T862 217Z"  />
<glyph unicode="d" horiz-adv-x="1171" d="M860 453Q860 606 775 699T551 793Q412 793 334 708T256 473Q256 304 335 209T553 113Q697 113 778 203T860 453ZM1012 1550V0H860V166Q806 67 720 14T528 -39Q331 -39 211 96T90 455Q90 680 208 814T522 948Q636 948 720 897T856 743V1550H1012Z"  />
<glyph unicode="e" horiz-adv-x="1053" d="M809 561Q801 682 729 747T530 813Q416 813 340 745T252 561H809ZM977 434H252V420Q252 273 336 183T555 92Q647 92 721 141T852 291L971 211Q902 87 795 24T547 -39Q338 -39 209 99T80 461Q80 676 208 813T537 950Q740 950 858 820T977 465V434Z"  />
<glyph unicode="f" horiz-adv-x="592" d="M201 0V786H25V915H201V1180Q201 1408 258 1488T465 1569Q502 1569 535 1564T600 1548V1386Q570 1403 540 1411T477 1419Q408 1419 382 1375T356 1159V915H600V786H360V0H201Z"  />
<glyph unicode="g" horiz-adv-x="1169" d="M860 455Q860 609 776 703T555 797Q414 797 335 710T256 467Q256 301 335 211T561 121Q701 121 780 209T860 455ZM1012 915V16Q1012 -133 992 -196T926 -309Q862 -378 770 -412T557 -446Q349 -446 233 -351T111 -82H287V-94Q287 -197 358 -253T559 -309Q653 -309 719 -279T821 -188Q842 -154 851 -109T860 20V92V174Q807 76 721 24T528 -29Q331 -29 211 105T90 461Q90 685 207 816T520 948Q634 948 720 897T856 745V915H1012Z"  />
<glyph unicode="h" horiz-adv-x="1141" d="M160 0V1550H313V774Q372 862 455 905T647 948Q809 948 900 862T991 623V0H831V539Q831 678 773 745T592 813Q522 813 465 788T369 715Q340 679 328 633T315 473V0H160Z"  />
<glyph unicode="i" horiz-adv-x="496" d="M131 1356Q131 1403 164 1436T246 1470Q293 1470 326 1436T360 1354Q360 1307 327 1274T246 1241Q198 1241 165 1274T131 1356ZM168 0V915H326V0H168Z"  />
<glyph unicode="j" horiz-adv-x="496" d="M131 1356Q131 1403 164 1436T246 1470Q293 1470 326 1436T360 1354Q360 1307 327 1274T246 1241Q198 1241 165 1274T131 1356ZM168 -446V915H326V-446H168Z"  />
<glyph unicode="k" horiz-adv-x="1010" d="M162 0V1550H319V500L760 915H969L512 496L1010 0H791L319 483V0H162Z"  />
<glyph unicode="l" horiz-adv-x="496" d="M168 0V1550H328V0H168Z"  />
<glyph unicode="m" horiz-adv-x="1737" d="M1434 0V539Q1434 678 1378 745T1206 813Q1143 813 1090 788T999 715Q972 679 960 631T948 473V0H797V539Q797 678 741 745T569 813Q506 813 452 788T360 715Q334 680 323 634T311 473V0H160V915H313V774Q370 862 449 905T631 948Q742 948 820 901T938 762Q997 856 1077 902T1264 948Q1417 948 1503 862T1589 623V0H1434Z"  />
<glyph unicode="n" horiz-adv-x="1141" d="M160 0V915H313V774Q372 862 455 905T647 948Q809 948 900 862T991 623V0H831V539Q831 678 773 745T592 813Q522 813 465 788T369 715Q340 679 328 633T315 473V0H160Z"  />
<glyph unicode="o" horiz-adv-x="1165" d="M252 455Q252 310 349 210T584 109Q721 109 817 209T913 455Q913 600 817 700T584 801Q445 801 349 701T252 455ZM86 455Q86 556 123 645T231 805Q302 875 392 911T584 948Q684 948 773 911T936 803Q1007 734 1044 645T1081 455Q1081 355 1044 267T936 109Q863 37 773 -1T584 -39Q483 -39 393 -2T231 106Q160 178 123 266T86 455Z"  />
<glyph unicode="p" horiz-adv-x="1171" d="M311 455Q311 301 396 208T621 115Q758 115 836 200T915 436Q915 605 837 701T618 797Q475 797 393 706T311 455ZM160 -446V915H309V743Q362 842 449 895T643 948Q841 948 961 813T1081 455Q1081 228 964 95T649 -39Q536 -39 452 12T315 166V-446H160Z"  />
<glyph unicode="q" horiz-adv-x="1171" d="M860 455Q860 615 779 706T553 797Q414 797 334 701T254 436Q254 285 332 200T549 115Q689 115 774 208T860 455ZM1012 -446H856V166Q804 64 720 13T522 -39Q325 -39 208 94T90 455Q90 678 210 813T528 948Q635 948 721 895T860 743V915H1012V-446Z"  />
<glyph unicode="r" horiz-adv-x="719" d="M162 0V915H301V725Q364 844 435 895T608 946Q636 946 662 942T714 928L662 787Q635 796 611 800T565 805Q441 805 379 716T317 446V0H162Z"  />
<glyph unicode="s" horiz-adv-x="834" d="M63 154L197 244Q235 171 293 135T430 98Q507 98 554 136T602 236Q602 284 570 316T458 375L432 384Q98 499 98 672Q98 794 188 871T422 948Q541 948 626 901T748 766L621 688Q593 751 539 785T412 819Q343 819 300 781T256 682Q256 598 438 541Q472 530 492 524Q641 476 699 415T758 252Q758 122 666 42T424 -39Q296 -39 207 9T63 154Z"  />
<glyph unicode="t" horiz-adv-x="530" d="M184 786H16V915H184V1284H344V915H512V786H344V0H184V786Z"  />
<glyph unicode="u" horiz-adv-x="1120" d="M307 915V465Q307 268 365 190T563 111Q702 111 759 188T817 465V915H977V381Q977 174 871 68T559 -39Q355 -39 249 68T143 381V915H307Z"  />
<glyph unicode="v" horiz-adv-x="920" d="M461 -57L8 915H184L459 276L735 915H911L461 -57Z"  />
<glyph unicode="w" horiz-adv-x="1417" d="M721 948L995 291L1241 915H1417L1010 -57L709 645L408 -57L0 915H174L418 291L696 948H721Z"  />
<glyph unicode="x" horiz-adv-x="887" d="M0 0L352 473L10 915H205L442 588L682 915H877L532 473L887 0H692L442 354L195 0H0Z"  />
<glyph unicode="y" horiz-adv-x="901" d="M123 -446L371 90L12 915H193L459 258L741 915H913L299 -446H123Z"  />
<glyph unicode="z" horiz-adv-x="883" d="M31 0L555 778H63V915H831L307 137H827V0H31Z"  />
<glyph unicode="{" horiz-adv-x="1024" d="M858 1350Q850 1350 835 1351T813 1352Q692 1352 649 1305T606 1108V866Q606 700 563 631T408 530Q519 500 562 431T606 195V-47Q606 -196 649 -242T819 -289H858V-414H823Q724 -414 664 -402T561 -362Q506 -326 484 -262T461 -49V195Q461 347 406 408T217 469Q210 469 195 468T172 467V594Q180 594 195 593T217 592Q351 592 406 653T461 868V1112Q461 1265 483 1327T561 1425Q603 1453 663 1465T823 1477H858V1350Z"  />
<glyph unicode="|" horiz-adv-x="1024" d="M575 1565V-483H449V1565H575Z"  />
<glyph unicode="}" horiz-adv-x="1024" d="M563 1112V868Q563 716 618 654T809 592Q816 592 831 593T854 594V467Q846 467 831 468T809 469Q674 469 619 407T563 193V-49Q563 -202 541 -265T465 -365Q426 -391 368 -402T207 -414H166V-289Q174 -289 189 -290T211 -291Q331 -291 374 -244T418 -45V195Q418 361 461 430T616 530Q505 561 462 630T418 866V1108Q418 1257 374 1304T205 1352H166V1477H201Q301 1477 362 1465T465 1425Q519 1390 541 1327T563 1112Z"  />
<glyph unicode="~" horiz-adv-x="1706" d="M1530 627Q1429 555 1333 519T1143 483Q1100 483 1053 492T952 518Q922 528 865 549Q663 621 563 621Q480 621 390 584T178 461V594Q283 667 380 703T565 739Q621 739 681 727T856 674Q870 669 900 658Q1058 600 1145 600Q1229 600 1319 637T1530 758V627Z"  />
<glyph unicode="&#xA0;" horiz-adv-x="1208" />
<glyph unicode="&#xA1;" horiz-adv-x="653" d="M209 1380Q209 1430 243 1463T328 1497Q378 1497 412 1464T446 1380Q446 1331 412 1297T328 1262Q279 1262 244 1296T209 1380ZM248 1128H408V-39H248V1128Z"  />
<glyph unicode="&#xA2;" horiz-adv-x="1208" d="M606 1075Q487 1063 409 971T330 750Q330 609 404 519T606 412V1075ZM967 995Q906 1034 838 1055T686 1081V410Q784 421 853 444T969 506L967 334Q907 299 839 282T686 262V59H606V266Q408 277 284 407T160 735Q160 934 280 1065T606 1221V1382H686V1225Q753 1225 822 1210T967 1165V995Z"  />
<glyph unicode="&#xA3;" horiz-adv-x="1208" d="M86 49Q141 137 203 183T336 236Q359 279 370 325T381 422Q381 462 369 504T332 590H96V707H276Q226 829 208 896T190 1022Q190 1224 321 1351T666 1479Q866 1479 981 1365T1114 1036L948 998Q939 1163 864 1251T655 1339Q530 1339 450 1255T369 1038Q369 970 391 888T459 707H844V590H502Q515 559 521 527T528 459Q528 406 504 347T436 236H444Q532 236 658 181T834 125Q885 125 928 155T1012 250L1145 162Q1089 60 1013 11T836 -39Q797 -39 756 -30T672 -4Q654 3 619 18Q449 88 385 88Q331 88 288 59T199 -39L86 49Z"  />
<glyph unicode="&#xA4;" horiz-adv-x="1208" d="M1133 283L1126 90Q1041 26 949 -6T760 -39Q531 -39 370 120T170 547H4L27 649H160Q159 654 159 662Q156 705 156 721Q156 735 157 756T161 805H4L27 911H174Q218 1171 380 1325T770 1479Q872 1479 958 1444T1126 1335V1145Q1047 1235 962 1280T784 1325Q622 1325 507 1214T358 911H977L944 805H342Q341 790 340 767Q338 731 338 721Q338 694 338 679T340 650L897 649L864 547H354Q382 352 497 234T770 115Q866 115 953 155T1133 283Z"  />
<glyph unicode="&#xA5;" horiz-adv-x="1208" d="M518 0V629H20V750H463L375 891H20V1014H297L25 1450H213L606 801L999 1450H1184L909 1014H1188V891H834L743 750H1188V629H690V0H518Z"  />
<glyph unicode="&#xA6;" horiz-adv-x="1024" d="M575 408V-350H449V408H575ZM575 1432V674H449V1432H575Z"  />
<glyph unicode="&#xA7;" horiz-adv-x="1075" d="M539 285Q643 285 717 357T791 530Q791 632 718 703T539 774Q433 774 360 703T287 530Q287 428 360 357T539 285ZM154 -90H323Q327 -195 379 -248T530 -301Q630 -301 683 -254T737 -121Q737 -48 695 -3T498 102Q271 191 191 280T111 516Q111 656 186 754T391 881Q275 925 220 997T164 1176Q164 1324 267 1411T547 1499Q716 1499 805 1414T895 1165V1145H738Q734 1249 684 1301T537 1354Q446 1354 395 1306T344 1174Q344 1125 363 1089T424 1024Q456 1001 540 970T657 926Q825 854 898 762T971 530Q971 392 901 304T690 176Q794 144 848 67T903 -127Q903 -279 804 -366T526 -453Q357 -453 256 -360T154 -111V-90Z"  />
<glyph unicode="&#xA8;" horiz-adv-x="1024" d="M582 1223Q582 1268 615 1301T694 1335Q740 1335 773 1302T807 1223Q807 1174 775 1142T694 1110Q646 1110 614 1142T582 1223ZM217 1223Q217 1267 251 1301T332 1335Q378 1335 410 1302T442 1223Q442 1173 412 1142T332 1110Q282 1110 250 1142T217 1223Z"  />
<glyph unicode="&#xA9;" horiz-adv-x="1706" d="M1065 911Q1050 988 995 1031T856 1075Q739 1075 674 983T608 723Q608 563 674 471T856 379Q943 379 1001 427T1075 561H1204Q1193 434 1095 354T850 274Q674 274 570 395T465 721Q465 929 572 1053T860 1178Q997 1178 1090 1104T1194 911H1065ZM1501 725Q1501 855 1452 974T1313 1184Q1221 1276 1103 1324T852 1372Q720 1372 605 1325T399 1186Q306 1091 257 972T207 725Q207 598 256 481T397 270Q490 178 606 129T852 80Q981 80 1100 130T1315 272Q1406 362 1453 477T1501 725ZM852 1460Q1003 1460 1137 1405T1376 1245Q1478 1143 1532 1009T1587 725Q1587 574 1533 442T1376 209Q1267 103 1132 47T852 -10Q706 -10 574 45T336 207Q230 312 175 445T119 725Q119 870 175 1004T338 1247Q440 1351 572 1405T852 1460Z"  />
<glyph unicode="&#xAA;" horiz-adv-x="874" d="M109 668H717V549H109V668ZM637 1378V1475H768V819H637V911Q592 854 531 825T395 795Q243 795 150 891T57 1145Q57 1306 148 1402T391 1499Q470 1499 532 1469T637 1378ZM416 1380Q313 1380 257 1319T201 1147Q201 1037 259 975T422 913Q523 913 580 973T637 1141Q637 1247 575 1313T416 1380Z"  />
<glyph unicode="&#xAB;" horiz-adv-x="852" d="M684 49L430 453L674 860L780 793L573 453L782 121L684 49ZM319 49L68 453L311 860L416 793L211 453L418 121L319 49Z"  />
<glyph unicode="&#xAC;" horiz-adv-x="1706" d="M1452 858V356H1337V741H254V858H1452Z"  />
<glyph unicode="&#xAD;" horiz-adv-x="750" d="M141 535H608V377H141V535Z"  />
<glyph unicode="&#xAE;" horiz-adv-x="1706" d="M846 1065H702V774H850Q973 774 1025 807T1077 915Q1077 994 1023 1029T846 1065ZM872 1157Q1050 1157 1136 1100T1223 926Q1223 837 1170 778T1026 702L1214 317H1057L881 682H702V317H561V1157H872ZM1501 721Q1501 854 1453 972T1315 1182Q1221 1275 1104 1323T852 1372Q720 1372 605 1325T401 1188Q307 1093 257 974T207 725Q207 598 256 481T397 270Q488 178 605 129T850 80Q981 80 1099 128T1313 270Q1404 360 1452 476T1501 721ZM852 1460Q1002 1460 1136 1405T1376 1243Q1478 1141 1532 1008T1587 725Q1587 574 1533 442T1374 209Q1265 103 1131 47T852 -10Q707 -10 574 46T334 209Q229 313 174 446T119 725Q119 872 176 1007T340 1249Q441 1352 572 1406T852 1460Z"  />
<glyph unicode="&#xAF;" horiz-adv-x="1024" d="M242 1153V1292H782V1153H242Z"  />
<glyph unicode="&#xB0;" horiz-adv-x="674" d="M539 1171Q539 1255 481 1313T338 1372Q254 1372 195 1314T135 1171Q135 1087 194 1028T338 969Q422 969 480 1028T539 1171ZM338 1454Q455 1454 538 1371T621 1171Q621 1055 538 972T336 889Q218 889 137 971T55 1171Q55 1290 137 1372T338 1454Z"  />
<glyph unicode="&#xB1;" horiz-adv-x="1706" d="M1452 158V41H254V158H1452ZM913 1180V836H1452V719H913V375H795V719H254V836H795V1180H913Z"  />
<glyph unicode="&#xB2;" horiz-adv-x="797" d="M657 676V575H76L281 795Q302 818 343 862Q575 1114 575 1212Q575 1281 522 1323T383 1366Q292 1366 244 1320T195 1186V1176H86V1200Q86 1325 165 1393T387 1462Q529 1462 608 1398T688 1219Q688 1137 634 1048T442 823L293 676H657Z"  />
<glyph unicode="&#xB3;" horiz-adv-x="797" d="M74 799H193V788Q193 720 241 681T373 641Q467 641 519 685T571 811Q571 896 518 939T360 983H328V1069Q333 1069 343 1068T358 1067Q458 1067 508 1106T559 1225Q559 1294 513 1334T387 1374Q304 1374 257 1336T205 1229H92Q98 1342 175 1402T391 1462Q525 1462 602 1400T680 1229Q680 1151 635 1098T508 1024Q595 1012 643 955T692 807Q692 689 606 621T369 553Q234 553 154 615T74 782V799Z"  />
<glyph unicode="&#xB4;" horiz-adv-x="1024" d="M369 1059L573 1407H774L489 1059H369Z"  />
<glyph unicode="&#xB5;" horiz-adv-x="1128" d="M362 1069L236 474Q228 441 225 407T221 336Q221 227 278 168T438 109Q563 109 646 210T774 518L895 1069H1051L889 315Q877 263 872 231T866 180Q866 148 884 132T938 115Q947 115 955 115T973 117L946 -8Q925 -13 902 -15T854 -18Q784 -18 750 17T709 129Q668 59 592 21T420 -18Q333 -18 268 16T158 119L45 -426H-111L205 1069H362Z"  />
<glyph unicode="&#xB6;" horiz-adv-x="1024" d="M948 1401H823V0H729V1401H547V0H451V782Q278 790 177 884T76 1130Q76 1287 183 1383T469 1479H948V1401Z"  />
<glyph unicode="&#xB7;" horiz-adv-x="604" d="M182 721Q182 770 217 805T301 840Q351 840 386 805T422 721Q422 671 387 637T301 602Q251 602 217 636T182 721Z"  />
<glyph unicode="&#xB8;" horiz-adv-x="1024" d="M256 -426V-326Q335 -344 399 -354T502 -365Q562 -365 592 -345T623 -283Q623 -239 591 -218T489 -197Q469 -197 458 -197T436 -198V0H512V-102H541Q650 -102 707 -148T764 -283Q764 -374 700 -422T514 -471Q464 -471 399 -460T256 -426Z"  />
<glyph unicode="&#xB9;" horiz-adv-x="799" d="M369 575V1354H172L236 1446H481V575H369Z"  />
<glyph unicode="&#xBA;" horiz-adv-x="874" d="M111 666H764V547H111V666ZM436 1378Q337 1378 268 1310T199 1145Q199 1048 268 980T436 911Q536 911 606 979T676 1145Q676 1243 607 1310T436 1378ZM436 1497Q597 1497 708 1395T819 1145Q819 999 708 896T436 793Q277 793 166 896T55 1145Q55 1291 166 1394T436 1497Z"  />
<glyph unicode="&#xBB;" horiz-adv-x="852" d="M166 49L68 121L274 453L70 793L174 860L418 453L166 49ZM530 49L430 121L639 453L432 793L539 860L782 453L530 49Z"  />
<glyph unicode="&#xBC;" horiz-adv-x="1866" d="M1565 0V176H1133L1626 827H1673V256H1782V176H1673V0H1565ZM1565 256V616L1294 256H1565ZM420 -39L1319 1479H1444L545 -39H420ZM352 633V1360H164L225 1444H459V633H352Z"  />
<glyph unicode="&#xBD;" horiz-adv-x="1866" d="M1733 92V0H1176L1370 205Q1389 225 1426 264Q1653 502 1653 596Q1653 659 1602 699T1470 739Q1383 739 1337 696T1290 569V561H1186V582Q1186 698 1262 762T1475 827Q1609 827 1685 767T1761 600Q1761 524 1710 441T1528 231L1382 92H1733ZM420 -39L1319 1479H1444L545 -39H420ZM352 633V1360H164L225 1444H459V633H352Z"  />
<glyph unicode="&#xBE;" horiz-adv-x="1864" d="M1565 0V176H1133L1626 827H1673V256H1782V176H1673V0H1565ZM1565 256V616L1294 256H1565ZM420 -39L1319 1479H1444L545 -39H420ZM72 840H182V831Q182 769 229 732T354 694Q445 694 495 736T545 854Q545 933 494 973T344 1014Q331 1014 325 1014T312 1012L311 1094Q318 1094 327 1093T342 1092Q437 1092 486 1129T535 1239Q535 1303 491 1340T371 1378Q290 1378 245 1343T196 1241H88Q94 1348 167 1404T373 1460Q501 1460 575 1402T649 1243Q649 1170 606 1120T485 1051Q567 1040 614 986T662 850Q662 738 579 674T350 610Q224 610 148 669T72 825V840Z"  />
<glyph unicode="&#xBF;" horiz-adv-x="1067" d="M676 1378Q676 1329 641 1295T557 1260Q508 1260 473 1294T438 1378Q438 1428 472 1462T557 1497Q607 1497 641 1463T676 1378ZM387 793H231V823Q231 976 312 1059T541 1143Q679 1143 757 1066T836 852Q836 761 785 688T590 514Q575 504 548 486Q358 357 358 262Q358 193 406 152T535 111Q624 111 672 166T721 324H883V297Q883 145 787 53T535 -39Q371 -39 278 47T184 283Q184 373 238 446T449 623Q464 633 493 652Q672 767 672 870Q672 925 634 961T537 997Q462 997 425 948T387 801V793Z"  />
<glyph unicode="&#xC0;" horiz-adv-x="1280" d="M639 1137L406 598H872L639 1137ZM639 1522L1305 0H1116L926 449H354L164 0H-25L639 1522ZM784 1610H664L379 1958H580L784 1610Z"  />
<glyph unicode="&#xC1;" horiz-adv-x="1280" d="M639 1137L406 598H872L639 1137ZM639 1522L1305 0H1116L926 449H354L164 0H-25L639 1522ZM498 1610L702 1958H903L618 1610H498Z"  />
<glyph unicode="&#xC2;" horiz-adv-x="1280" d="M639 1137L406 598H872L639 1137ZM639 1522L1305 0H1116L926 449H354L164 0H-25L639 1522ZM346 1610L543 1958H739L936 1610H813L641 1839L467 1610H346Z"  />
<glyph unicode="&#xC3;" horiz-adv-x="1280" d="M639 1137L406 598H872L639 1137ZM639 1522L1305 0H1116L926 449H354L164 0H-25L639 1522ZM934 1888Q914 1786 864 1733T737 1679Q724 1679 707 1682T671 1690L575 1716Q562 1720 550 1722T526 1725Q495 1725 473 1708T436 1657H348Q366 1756 416 1809T541 1862Q558 1862 573 1860T600 1854L698 1825Q721 1819 732 1817T752 1815Q785 1815 808 1833T846 1888H934Z"  />
<glyph unicode="&#xC4;" horiz-adv-x="1280" d="M639 1137L406 598H872L639 1137ZM639 1522L1305 0H1116L926 449H354L164 0H-25L639 1522ZM711 1774Q711 1819 744 1852T823 1886Q869 1886 902 1853T936 1774Q936 1725 904 1693T823 1661Q775 1661 743 1693T711 1774ZM346 1774Q346 1818 380 1852T461 1886Q507 1886 539 1853T571 1774Q571 1724 541 1693T461 1661Q411 1661 379 1693T346 1774Z"  />
<glyph unicode="&#xC5;" horiz-adv-x="1280" d="M518 1733Q518 1680 553 1644T641 1608Q694 1608 731 1644T768 1733Q768 1784 731 1821T641 1858Q590 1858 554 1822T518 1733ZM401 1733Q401 1834 470 1903T641 1972Q742 1972 811 1903T881 1733Q881 1631 812 1562T641 1493Q540 1493 471 1562T401 1733ZM629 1460H655L1305 0H1116L926 449H354L164 0H-25L629 1460ZM639 1137L406 598H872L639 1137Z"  />
<glyph unicode="&#xC6;" horiz-adv-x="1767" d="M-25 0L596 1464H1364L1391 1309H745L928 879H1565L1593 723H995L1233 162H1845L1874 0H1116L926 449H354L164 0H-25ZM406 598H872L639 1167L406 598Z"  />
<glyph unicode="&#xC7;" horiz-adv-x="1485" d="M1364 1114Q1259 1228 1140 1282T877 1337Q761 1337 651 1290T459 1159Q375 1072 333 965T291 727Q291 625 316 539T391 381Q479 256 607 189T885 121Q1025 121 1145 179T1364 352V121Q1255 42 1130 2T870 -39Q754 -39 644 -5T438 96Q278 207 194 369T109 725Q109 894 165 1032T338 1284Q450 1392 586 1445T883 1499Q1010 1499 1129 1461T1364 1341V1114ZM612 -426V-326Q691 -344 755 -354T858 -365Q918 -365 948 -345T979 -283Q979 -239 947 -218T845 -197Q825 -197 814 -197T792 -198V0H868V-102H897Q1006 -102 1063 -148T1120 -283Q1120 -374 1056 -422T870 -471Q820 -471 755 -460T612 -426Z"  />
<glyph unicode="&#xC8;" horiz-adv-x="1067" d="M176 0V1464H948V1305H350V885H948V723H350V162H948V0H176ZM710 1610H590L305 1958H506L710 1610Z"  />
<glyph unicode="&#xC9;" horiz-adv-x="1067" d="M176 0V1464H948V1305H350V885H948V723H350V162H948V0H176ZM424 1610L628 1958H829L544 1610H424Z"  />
<glyph unicode="&#xCA;" horiz-adv-x="1067" d="M176 0V1464H948V1305H350V885H948V723H350V162H948V0H176ZM272 1610L469 1958H665L862 1610H739L567 1839L393 1610H272Z"  />
<glyph unicode="&#xCB;" horiz-adv-x="1067" d="M176 0V1464H948V1305H350V885H948V723H350V162H948V0H176ZM637 1774Q637 1819 670 1852T749 1886Q795 1886 828 1853T862 1774Q862 1725 830 1693T749 1661Q701 1661 669 1693T637 1774ZM272 1774Q272 1818 306 1852T387 1886Q433 1886 465 1853T497 1774Q497 1724 467 1693T387 1661Q337 1661 305 1693T272 1774Z"  />
<glyph unicode="&#xCC;" horiz-adv-x="530" d="M178 0V1464H352V0H178ZM410 1610H290L5 1958H206L410 1610Z"  />
<glyph unicode="&#xCD;" horiz-adv-x="530" d="M178 0V1464H352V0H178ZM124 1610L328 1958H529L244 1610H124Z"  />
<glyph unicode="&#xCE;" horiz-adv-x="530" d="M178 0V1464H352V0H178ZM-28 1610L169 1958H365L562 1610H439L267 1839L93 1610H-28Z"  />
<glyph unicode="&#xCF;" horiz-adv-x="530" d="M178 0V1464H352V0H178ZM337 1774Q337 1819 370 1852T449 1886Q495 1886 528 1853T562 1774Q562 1725 530 1693T449 1661Q401 1661 369 1693T337 1774ZM-28 1774Q-28 1818 6 1852T87 1886Q133 1886 165 1853T197 1774Q197 1724 167 1693T87 1661Q37 1661 5 1693T-28 1774Z"  />
<glyph unicode="&#xD0;" horiz-adv-x="1493" d="M184 0V741H0V893H184V1464H465Q777 1464 904 1433T1128 1327Q1255 1230 1320 1078T1386 731Q1386 536 1321 386T1128 137Q1033 63 910 32T528 0H465H184ZM360 164H473Q743 164 847 187T1020 268Q1109 342 1155 460T1202 733Q1202 888 1157 1004T1020 1196Q951 1254 845 1278T473 1303H360V893H758V741H360V164Z"  />
<glyph unicode="&#xD1;" horiz-adv-x="1587" d="M176 0V1522L1247 352V1464H1413V-57L342 1100V0H176ZM1088 1888Q1068 1786 1018 1733T891 1679Q878 1679 861 1682T825 1690L729 1716Q716 1720 704 1722T680 1725Q649 1725 627 1708T590 1657H502Q520 1756 570 1809T695 1862Q712 1862 727 1860T754 1854L852 1825Q875 1819 886 1817T906 1815Q939 1815 962 1833T1000 1888H1088Z"  />
<glyph unicode="&#xD2;" horiz-adv-x="1782" d="M891 125Q1011 125 1119 170T1315 303Q1401 389 1446 498T1491 729Q1491 852 1446 963T1315 1159Q1229 1245 1121 1290T891 1335Q769 1335 660 1290T467 1159Q381 1072 336 962T291 729Q291 607 335 499T467 303Q555 215 662 170T891 125ZM1673 729Q1673 572 1615 433T1446 186Q1335 78 1191 20T891 -39Q736 -39 593 19T338 186Q226 295 168 434T109 729Q109 886 167 1025T338 1274Q448 1381 592 1439T891 1497Q1047 1497 1191 1439T1446 1274Q1557 1166 1615 1027T1673 729ZM1034 1610H914L629 1958H830L1034 1610Z"  />
<glyph unicode="&#xD3;" horiz-adv-x="1782" d="M891 125Q1011 125 1119 170T1315 303Q1401 389 1446 498T1491 729Q1491 852 1446 963T1315 1159Q1229 1245 1121 1290T891 1335Q769 1335 660 1290T467 1159Q381 1072 336 962T291 729Q291 607 335 499T467 303Q555 215 662 170T891 125ZM1673 729Q1673 572 1615 433T1446 186Q1335 78 1191 20T891 -39Q736 -39 593 19T338 186Q226 295 168 434T109 729Q109 886 167 1025T338 1274Q448 1381 592 1439T891 1497Q1047 1497 1191 1439T1446 1274Q1557 1166 1615 1027T1673 729ZM748 1610L952 1958H1153L868 1610H748Z"  />
<glyph unicode="&#xD4;" horiz-adv-x="1782" d="M891 125Q1011 125 1119 170T1315 303Q1401 389 1446 498T1491 729Q1491 852 1446 963T1315 1159Q1229 1245 1121 1290T891 1335Q769 1335 660 1290T467 1159Q381 1072 336 962T291 729Q291 607 335 499T467 303Q555 215 662 170T891 125ZM1673 729Q1673 572 1615 433T1446 186Q1335 78 1191 20T891 -39Q736 -39 593 19T338 186Q226 295 168 434T109 729Q109 886 167 1025T338 1274Q448 1381 592 1439T891 1497Q1047 1497 1191 1439T1446 1274Q1557 1166 1615 1027T1673 729ZM596 1610L793 1958H989L1186 1610H1063L891 1839L717 1610H596Z"  />
<glyph unicode="&#xD5;" horiz-adv-x="1782" d="M891 125Q1011 125 1119 170T1315 303Q1401 389 1446 498T1491 729Q1491 852 1446 963T1315 1159Q1229 1245 1121 1290T891 1335Q769 1335 660 1290T467 1159Q381 1072 336 962T291 729Q291 607 335 499T467 303Q555 215 662 170T891 125ZM1673 729Q1673 572 1615 433T1446 186Q1335 78 1191 20T891 -39Q736 -39 593 19T338 186Q226 295 168 434T109 729Q109 886 167 1025T338 1274Q448 1381 592 1439T891 1497Q1047 1497 1191 1439T1446 1274Q1557 1166 1615 1027T1673 729ZM1184 1888Q1164 1786 1114 1733T987 1679Q974 1679 957 1682T921 1690L825 1716Q812 1720 800 1722T776 1725Q745 1725 723 1708T686 1657H598Q616 1756 666 1809T791 1862Q808 1862 823 1860T850 1854L948 1825Q971 1819 982 1817T1002 1815Q1035 1815 1058 1833T1096 1888H1184Z"  />
<glyph unicode="&#xD6;" horiz-adv-x="1782" d="M891 125Q1011 125 1119 170T1315 303Q1401 389 1446 498T1491 729Q1491 852 1446 963T1315 1159Q1229 1245 1121 1290T891 1335Q769 1335 660 1290T467 1159Q381 1072 336 962T291 729Q291 607 335 499T467 303Q555 215 662 170T891 125ZM1673 729Q1673 572 1615 433T1446 186Q1335 78 1191 20T891 -39Q736 -39 593 19T338 186Q226 295 168 434T109 729Q109 886 167 1025T338 1274Q448 1381 592 1439T891 1497Q1047 1497 1191 1439T1446 1274Q1557 1166 1615 1027T1673 729ZM961 1774Q961 1819 994 1852T1073 1886Q1119 1886 1152 1853T1186 1774Q1186 1725 1154 1693T1073 1661Q1025 1661 993 1693T961 1774ZM596 1774Q596 1818 630 1852T711 1886Q757 1886 789 1853T821 1774Q821 1724 791 1693T711 1661Q661 1661 629 1693T596 1774Z"  />
<glyph unicode="&#xD7;" horiz-adv-x="1706" d="M858 692L1333 1169L1415 1087L940 610L1415 135L1333 53L858 528L381 53L301 135L776 610L301 1087L381 1169L858 692Z"  />
<glyph unicode="&#xD8;" horiz-adv-x="1782" d="M1260 1210Q1177 1273 1084 1305T891 1337Q770 1337 662 1292T467 1161Q381 1076 336 966T291 731Q291 612 329 510T440 332L1260 1210ZM524 252Q603 189 695 158T891 127Q1014 127 1123 171T1317 301Q1401 386 1446 499T1491 737Q1491 845 1455 942T1341 1133L524 252ZM242 -49L162 33L322 205Q219 306 164 442T109 731Q109 887 167 1026T338 1274Q449 1383 591 1441T891 1499Q1026 1499 1148 1457T1374 1333L1534 1503L1614 1423L1460 1260Q1564 1159 1618 1024T1673 731Q1673 575 1615 436T1444 188Q1332 80 1190 23T891 -35Q763 -35 643 6T408 129L242 -49Z"  />
<glyph unicode="&#xD9;" horiz-adv-x="1475" d="M170 1464H346V553Q346 331 440 227T737 123Q939 123 1033 227T1128 553V1464H1305V553Q1305 256 1164 109T737 -39Q453 -39 312 108T170 553V1464ZM880 1610H760L475 1958H676L880 1610Z"  />
<glyph unicode="&#xDA;" horiz-adv-x="1475" d="M170 1464H346V553Q346 331 440 227T737 123Q939 123 1033 227T1128 553V1464H1305V553Q1305 256 1164 109T737 -39Q453 -39 312 108T170 553V1464ZM594 1610L798 1958H999L714 1610H594Z"  />
<glyph unicode="&#xDB;" horiz-adv-x="1475" d="M170 1464H346V553Q346 331 440 227T737 123Q939 123 1033 227T1128 553V1464H1305V553Q1305 256 1164 109T737 -39Q453 -39 312 108T170 553V1464ZM442 1610L639 1958H835L1032 1610H909L737 1839L563 1610H442Z"  />
<glyph unicode="&#xDC;" horiz-adv-x="1475" d="M170 1464H346V553Q346 331 440 227T737 123Q939 123 1033 227T1128 553V1464H1305V553Q1305 256 1164 109T737 -39Q453 -39 312 108T170 553V1464ZM807 1774Q807 1819 840 1852T919 1886Q965 1886 998 1853T1032 1774Q1032 1725 1000 1693T919 1661Q871 1661 839 1693T807 1774ZM442 1774Q442 1818 476 1852T557 1886Q603 1886 635 1853T667 1774Q667 1724 637 1693T557 1661Q507 1661 475 1693T442 1774Z"  />
<glyph unicode="&#xDD;" horiz-adv-x="1171" d="M498 0V670L2 1464H203L586 829L967 1464H1167L672 670V0H498ZM443 1610L647 1958H848L563 1610H443Z"  />
<glyph unicode="&#xDE;" horiz-adv-x="1024" d="M346 516H434Q662 516 737 567T813 750Q813 891 733 948T434 1006H346V516ZM346 356V0H176V1464H346V1165H461Q639 1165 716 1148T852 1090Q922 1039 961 952T1001 760Q1001 654 962 567T852 430Q796 390 721 373T483 356H434H346Z"  />
<glyph unicode="&#xDF;" horiz-adv-x="1176" d="M170 0V791H41V922H170V1184Q170 1365 273 1467T561 1569Q738 1569 846 1465T954 1190Q954 1066 901 987T743 879Q904 868 991 756T1079 449Q1079 231 952 99T614 -33Q588 -33 556 -28T475 -12V141Q506 127 539 120T610 113Q752 113 828 200T905 449Q905 619 818 707T559 795Q543 795 507 791Q504 791 502 791V938Q510 937 519 937T547 936Q666 936 728 995T791 1169Q791 1289 732 1352T561 1415Q490 1415 437 1388T354 1309Q339 1284 333 1246T326 1122V1030V0H170Z"  />
<glyph unicode="&#xE0;" horiz-adv-x="1165" d="M860 449Q860 604 776 698T555 793Q414 793 335 706T256 463Q256 297 335 207T561 117Q701 117 780 204T860 449ZM1012 915V0H860V166Q805 66 720 14T528 -39Q331 -39 211 96T90 455Q90 681 207 814T520 948Q635 948 719 897T856 743V915H1012ZM727 1059H607L322 1407H523L727 1059Z"  />
<glyph unicode="&#xE1;" horiz-adv-x="1165" d="M860 449Q860 604 776 698T555 793Q414 793 335 706T256 463Q256 297 335 207T561 117Q701 117 780 204T860 449ZM1012 915V0H860V166Q805 66 720 14T528 -39Q331 -39 211 96T90 455Q90 681 207 814T520 948Q635 948 719 897T856 743V915H1012ZM441 1059L645 1407H846L561 1059H441Z"  />
<glyph unicode="&#xE2;" horiz-adv-x="1165" d="M860 449Q860 604 776 698T555 793Q414 793 335 706T256 463Q256 297 335 207T561 117Q701 117 780 204T860 449ZM1012 915V0H860V166Q805 66 720 14T528 -39Q331 -39 211 96T90 455Q90 681 207 814T520 948Q635 948 719 897T856 743V915H1012ZM289 1059L486 1407H682L879 1059H756L584 1288L410 1059H289Z"  />
<glyph unicode="&#xE3;" horiz-adv-x="1165" d="M860 449Q860 604 776 698T555 793Q414 793 335 706T256 463Q256 297 335 207T561 117Q701 117 780 204T860 449ZM1012 915V0H860V166Q805 66 720 14T528 -39Q331 -39 211 96T90 455Q90 681 207 814T520 948Q635 948 719 897T856 743V915H1012ZM877 1337Q857 1235 807 1182T680 1128Q667 1128 650 1131T614 1139L518 1165Q505 1169 493 1171T469 1174Q438 1174 416 1157T379 1106H291Q309 1205 359 1258T484 1311Q501 1311 516 1309T543 1303L641 1274Q664 1268 675 1266T695 1264Q728 1264 751 1282T789 1337H877Z"  />
<glyph unicode="&#xE4;" horiz-adv-x="1165" d="M860 449Q860 604 776 698T555 793Q414 793 335 706T256 463Q256 297 335 207T561 117Q701 117 780 204T860 449ZM1012 915V0H860V166Q805 66 720 14T528 -39Q331 -39 211 96T90 455Q90 681 207 814T520 948Q635 948 719 897T856 743V915H1012ZM654 1223Q654 1268 687 1301T766 1335Q812 1335 845 1302T879 1223Q879 1174 847 1142T766 1110Q718 1110 686 1142T654 1223ZM289 1223Q289 1267 323 1301T404 1335Q450 1335 482 1302T514 1223Q514 1173 484 1142T404 1110Q354 1110 322 1142T289 1223Z"  />
<glyph unicode="&#xE5;" horiz-adv-x="1165" d="M1012 915V0H860V166Q805 66 720 14T528 -39Q331 -39 211 96T90 455Q90 681 207 814T520 948Q635 948 719 897T856 743V915H1012ZM860 449Q860 604 776 698T555 793Q414 793 335 706T256 463Q256 297 335 207T561 117Q701 117 780 204T860 449ZM430 1255Q430 1203 465 1167T553 1130Q605 1130 642 1167T680 1255Q680 1306 643 1343T553 1380Q502 1380 466 1344T430 1255ZM313 1253Q313 1355 382 1424T553 1493Q654 1493 723 1424T793 1253Q793 1152 724 1083T553 1014Q452 1014 383 1083T313 1253Z"  />
<glyph unicode="&#xE6;" horiz-adv-x="1663" d="M213 281Q213 191 273 144T446 96Q563 96 631 147T700 287Q700 378 637 427T457 477Q338 477 276 427T213 281ZM766 164Q719 66 626 15T403 -37Q244 -37 149 52T53 289Q53 438 150 524T416 610Q495 610 564 588T690 521Q691 528 691 538T692 567Q692 690 619 754T403 819Q341 819 274 800T133 743V889Q213 918 291 933T444 948Q578 948 668 895T784 748Q830 847 920 898T1139 950Q1345 950 1464 821T1583 467V434H852Q855 283 942 188T1163 92Q1258 92 1332 142T1458 291L1577 211Q1508 87 1402 24T1153 -39Q1021 -39 922 13T766 164ZM852 561H1411Q1403 682 1331 747T1133 813Q1021 813 941 742T852 561Z"  />
<glyph unicode="&#xE7;" horiz-adv-x="920" d="M862 217V35Q800 -2 723 -20T555 -39Q343 -39 214 95T84 449Q84 669 218 808T561 948Q637 948 709 932T846 885V717Q786 756 722 776T592 797Q438 797 345 701T252 444Q252 303 345 208T580 113Q651 113 719 138T862 217ZM276 -426V-326Q355 -344 419 -354T522 -365Q582 -365 612 -345T643 -283Q643 -239 611 -218T509 -197Q489 -197 478 -197T456 -198V0H532V-102H561Q670 -102 727 -148T784 -283Q784 -374 720 -422T534 -471Q484 -471 419 -460T276 -426Z"  />
<glyph unicode="&#xE8;" horiz-adv-x="1053" d="M809 561Q801 682 729 747T530 813Q416 813 340 745T252 561H809ZM977 434H252V420Q252 273 336 183T555 92Q647 92 721 141T852 291L971 211Q902 87 795 24T547 -39Q338 -39 209 99T80 461Q80 676 208 813T537 950Q740 950 858 820T977 465V434ZM669 1059H549L264 1407H465L669 1059Z"  />
<glyph unicode="&#xE9;" horiz-adv-x="1053" d="M809 561Q801 682 729 747T530 813Q416 813 340 745T252 561H809ZM977 434H252V420Q252 273 336 183T555 92Q647 92 721 141T852 291L971 211Q902 87 795 24T547 -39Q338 -39 209 99T80 461Q80 676 208 813T537 950Q740 950 858 820T977 465V434ZM383 1059L587 1407H788L503 1059H383Z"  />
<glyph unicode="&#xEA;" horiz-adv-x="1053" d="M809 561Q801 682 729 747T530 813Q416 813 340 745T252 561H809ZM977 434H252V420Q252 273 336 183T555 92Q647 92 721 141T852 291L971 211Q902 87 795 24T547 -39Q338 -39 209 99T80 461Q80 676 208 813T537 950Q740 950 858 820T977 465V434ZM231 1059L428 1407H624L821 1059H698L526 1288L352 1059H231Z"  />
<glyph unicode="&#xEB;" horiz-adv-x="1053" d="M809 561Q801 682 729 747T530 813Q416 813 340 745T252 561H809ZM977 434H252V420Q252 273 336 183T555 92Q647 92 721 141T852 291L971 211Q902 87 795 24T547 -39Q338 -39 209 99T80 461Q80 676 208 813T537 950Q740 950 858 820T977 465V434ZM596 1223Q596 1268 629 1301T708 1335Q754 1335 787 1302T821 1223Q821 1174 789 1142T708 1110Q660 1110 628 1142T596 1223ZM231 1223Q231 1267 265 1301T346 1335Q392 1335 424 1302T456 1223Q456 1173 426 1142T346 1110Q296 1110 264 1142T231 1223Z"  />
<glyph unicode="&#xEC;" horiz-adv-x="496" d="M168 0V915H326V0H168ZM392 1059H272L-13 1407H188L392 1059Z"  />
<glyph unicode="&#xED;" horiz-adv-x="496" d="M168 0V915H326V0H168ZM106 1059L310 1407H511L226 1059H106Z"  />
<glyph unicode="&#xEE;" horiz-adv-x="496" d="M168 0V915H326V0H168ZM-46 1059L151 1407H347L544 1059H421L249 1288L75 1059H-46Z"  />
<glyph unicode="&#xEF;" horiz-adv-x="496" d="M168 0V915H326V0H168ZM319 1223Q319 1268 352 1301T431 1335Q477 1335 510 1302T544 1223Q544 1174 512 1142T431 1110Q383 1110 351 1142T319 1223ZM-46 1223Q-46 1267 -12 1301T69 1335Q115 1335 147 1302T179 1223Q179 1173 149 1142T69 1110Q19 1110 -13 1142T-46 1223Z"  />
<glyph unicode="&#xF0;" horiz-adv-x="1165" d="M252 426Q252 295 348 203T584 111Q721 111 817 203T913 426Q913 558 818 650T584 743Q445 743 349 651T252 426ZM909 737Q874 856 798 970T604 1194L276 1044L219 1149L498 1278Q439 1325 380 1365T260 1438L338 1548Q421 1500 496 1449T641 1341L985 1501L1044 1397L739 1253Q913 1077 997 895T1081 514Q1081 258 947 110T584 -39Q485 -39 394 -4T229 98Q160 163 123 247T86 424Q86 517 123 601T229 750Q301 816 388 851T565 887Q667 887 752 850T909 737Z"  />
<glyph unicode="&#xF1;" horiz-adv-x="1141" d="M160 0V915H313V774Q372 862 455 905T647 948Q809 948 900 862T991 623V0H831V539Q831 678 773 745T592 813Q522 813 465 788T369 715Q340 679 328 633T315 473V0H160ZM871 1337Q851 1235 801 1182T674 1128Q661 1128 644 1131T608 1139L512 1165Q499 1169 487 1171T463 1174Q432 1174 410 1157T373 1106H285Q303 1205 353 1258T478 1311Q495 1311 510 1309T537 1303L635 1274Q658 1268 669 1266T689 1264Q722 1264 745 1282T783 1337H871Z"  />
<glyph unicode="&#xF2;" horiz-adv-x="1165" d="M252 455Q252 310 349 210T584 109Q721 109 817 209T913 455Q913 600 817 700T584 801Q445 801 349 701T252 455ZM86 455Q86 556 123 645T231 805Q302 875 392 911T584 948Q684 948 773 911T936 803Q1007 734 1044 645T1081 455Q1081 355 1044 267T936 109Q863 37 773 -1T584 -39Q483 -39 393 -2T231 106Q160 178 123 266T86 455ZM727 1059H607L322 1407H523L727 1059Z"  />
<glyph unicode="&#xF3;" horiz-adv-x="1165" d="M252 455Q252 310 349 210T584 109Q721 109 817 209T913 455Q913 600 817 700T584 801Q445 801 349 701T252 455ZM86 455Q86 556 123 645T231 805Q302 875 392 911T584 948Q684 948 773 911T936 803Q1007 734 1044 645T1081 455Q1081 355 1044 267T936 109Q863 37 773 -1T584 -39Q483 -39 393 -2T231 106Q160 178 123 266T86 455ZM441 1059L645 1407H846L561 1059H441Z"  />
<glyph unicode="&#xF4;" horiz-adv-x="1165" d="M252 455Q252 310 349 210T584 109Q721 109 817 209T913 455Q913 600 817 700T584 801Q445 801 349 701T252 455ZM86 455Q86 556 123 645T231 805Q302 875 392 911T584 948Q684 948 773 911T936 803Q1007 734 1044 645T1081 455Q1081 355 1044 267T936 109Q863 37 773 -1T584 -39Q483 -39 393 -2T231 106Q160 178 123 266T86 455ZM289 1059L486 1407H682L879 1059H756L584 1288L410 1059H289Z"  />
<glyph unicode="&#xF5;" horiz-adv-x="1165" d="M252 455Q252 310 349 210T584 109Q721 109 817 209T913 455Q913 600 817 700T584 801Q445 801 349 701T252 455ZM86 455Q86 556 123 645T231 805Q302 875 392 911T584 948Q684 948 773 911T936 803Q1007 734 1044 645T1081 455Q1081 355 1044 267T936 109Q863 37 773 -1T584 -39Q483 -39 393 -2T231 106Q160 178 123 266T86 455ZM877 1337Q857 1235 807 1182T680 1128Q667 1128 650 1131T614 1139L518 1165Q505 1169 493 1171T469 1174Q438 1174 416 1157T379 1106H291Q309 1205 359 1258T484 1311Q501 1311 516 1309T543 1303L641 1274Q664 1268 675 1266T695 1264Q728 1264 751 1282T789 1337H877Z"  />
<glyph unicode="&#xF6;" horiz-adv-x="1165" d="M252 455Q252 310 349 210T584 109Q721 109 817 209T913 455Q913 600 817 700T584 801Q445 801 349 701T252 455ZM86 455Q86 556 123 645T231 805Q302 875 392 911T584 948Q684 948 773 911T936 803Q1007 734 1044 645T1081 455Q1081 355 1044 267T936 109Q863 37 773 -1T584 -39Q483 -39 393 -2T231 106Q160 178 123 266T86 455ZM654 1223Q654 1268 687 1301T766 1335Q812 1335 845 1302T879 1223Q879 1174 847 1142T766 1110Q718 1110 686 1142T654 1223ZM289 1223Q289 1267 323 1301T404 1335Q450 1335 482 1302T514 1223Q514 1173 484 1142T404 1110Q354 1110 322 1142T289 1223Z"  />
<glyph unicode="&#xF7;" horiz-adv-x="1706" d="M854 365Q901 365 935 331T969 250Q969 203 936 169T854 135Q806 135 773 168T739 250Q739 298 773 331T854 365ZM1452 670V553H254V670H1452ZM854 1085Q902 1085 935 1052T969 971Q969 923 936 890T854 856Q805 856 772 889T739 971Q739 1018 773 1051T854 1085Z"  />
<glyph unicode="&#xF8;" horiz-adv-x="1165" d="M76 33L193 147Q139 210 113 283T86 440Q86 661 226 803T584 946Q670 946 746 920T889 842L1008 958L1081 885L965 768Q1023 710 1052 634T1081 463Q1081 250 937 106T580 -39Q486 -39 405 -10T264 74L143 -47L76 33ZM852 657L377 184Q412 146 464 126T582 106Q723 106 820 209T918 463Q918 517 902 565T852 657ZM307 262L780 731Q745 765 694 783T582 801Q441 801 347 701T252 449Q252 397 266 350T307 262Z"  />
<glyph unicode="&#xF9;" horiz-adv-x="1120" d="M307 915V465Q307 268 365 190T563 111Q702 111 759 188T817 465V915H977V381Q977 174 871 68T559 -39Q355 -39 249 68T143 381V915H307ZM704 1059H584L299 1407H500L704 1059Z"  />
<glyph unicode="&#xFA;" horiz-adv-x="1120" d="M307 915V465Q307 268 365 190T563 111Q702 111 759 188T817 465V915H977V381Q977 174 871 68T559 -39Q355 -39 249 68T143 381V915H307ZM418 1059L622 1407H823L538 1059H418Z"  />
<glyph unicode="&#xFB;" horiz-adv-x="1120" d="M307 915V465Q307 268 365 190T563 111Q702 111 759 188T817 465V915H977V381Q977 174 871 68T559 -39Q355 -39 249 68T143 381V915H307ZM266 1059L463 1407H659L856 1059H733L561 1288L387 1059H266Z"  />
<glyph unicode="&#xFC;" horiz-adv-x="1120" d="M307 915V465Q307 268 365 190T563 111Q702 111 759 188T817 465V915H977V381Q977 174 871 68T559 -39Q355 -39 249 68T143 381V915H307ZM631 1223Q631 1268 664 1301T743 1335Q789 1335 822 1302T856 1223Q856 1174 824 1142T743 1110Q695 1110 663 1142T631 1223ZM266 1223Q266 1267 300 1301T381 1335Q427 1335 459 1302T491 1223Q491 1173 461 1142T381 1110Q331 1110 299 1142T266 1223Z"  />
<glyph unicode="&#xFD;" horiz-adv-x="901" d="M123 -446L371 90L12 915H193L459 258L741 915H913L299 -446H123ZM309 1059L513 1407H714L429 1059H309Z"  />
<glyph unicode="&#xFE;" horiz-adv-x="1176" d="M311 467Q311 305 395 210T621 115Q758 115 836 200T915 436Q915 605 837 701T618 797Q478 797 395 708T311 467ZM315 166V-446H160V1550H315V743Q354 840 440 894T643 948Q841 948 961 813T1081 455Q1081 228 964 95T649 -39Q536 -39 452 12T315 166Z"  />
<glyph unicode="&#xFF;" horiz-adv-x="901" d="M123 -446L371 90L12 915H193L459 258L741 915H913L299 -446H123ZM522 1223Q522 1268 555 1301T634 1335Q680 1335 713 1302T747 1223Q747 1174 715 1142T634 1110Q586 1110 554 1142T522 1223ZM157 1223Q157 1267 191 1301T272 1335Q318 1335 350 1302T382 1223Q382 1173 352 1142T272 1110Q222 1110 190 1142T157 1223Z"  />
<glyph unicode="&#x131;" horiz-adv-x="496" d="M168 0V915H326V0H168Z"  />
<glyph unicode="&#x152;" horiz-adv-x="2361" d="M293 733Q293 612 338 503T471 307Q555 223 662 179T891 135Q1013 135 1121 180T1315 309Q1400 395 1444 503T1489 733Q1489 852 1444 961T1313 1155Q1228 1240 1119 1285T891 1331Q771 1331 662 1287T469 1157Q382 1070 338 963T293 733ZM2253 1464V1305H1655V885H2253V723H1655V162H2253V0H1489V258Q1374 110 1231 38T907 -35Q793 -35 688 -9T500 68Q313 177 211 351T109 733Q109 887 168 1025T340 1276Q453 1385 598 1442T909 1499Q1088 1499 1230 1428T1489 1208V1464H2253Z"  />
<glyph unicode="&#x153;" horiz-adv-x="1878" d="M1632 561Q1625 682 1552 747T1354 813Q1240 813 1165 745T1077 561H1632ZM985 164Q932 72 823 17T584 -39Q518 -39 455 -22T334 29Q215 99 151 210T86 455Q86 664 232 806T596 948Q716 948 813 898T985 748Q1041 845 1137 897T1358 950Q1562 950 1681 820T1800 465V434H1077V420Q1077 273 1161 183T1380 92Q1472 92 1545 141T1675 291L1796 211Q1727 87 1621 24T1372 -39Q1241 -39 1141 13T985 164ZM252 455Q252 310 349 210T584 109Q721 109 817 209T913 455Q913 600 817 700T584 801Q445 801 349 701T252 455Z"  />
<glyph unicode="&#x160;" horiz-adv-x="1053" d="M709 813Q852 752 924 651T997 412Q997 210 869 87T528 -37Q355 -37 238 51T80 303L238 381Q270 248 343 180T528 111Q659 111 740 186T821 383Q821 481 765 553T594 676L416 752Q270 813 199 909T127 1139Q127 1295 243 1397T539 1499Q671 1499 767 1443T918 1278L774 1186Q725 1271 664 1312T526 1354Q428 1354 366 1294T303 1141Q303 1063 351 1006T500 905L709 813ZM231 1958H352L526 1731L698 1958H821L624 1610H428L231 1958Z"  />
<glyph unicode="&#x161;" horiz-adv-x="834" d="M63 154L197 244Q235 171 293 135T430 98Q507 98 554 136T602 236Q602 284 570 316T458 375L432 384Q98 499 98 672Q98 794 188 871T422 948Q541 948 626 901T748 766L621 688Q593 751 539 785T412 819Q343 819 300 781T256 682Q256 598 438 541Q472 530 492 524Q641 476 699 415T758 252Q758 122 666 42T424 -39Q296 -39 207 9T63 154ZM124 1407H245L419 1180L591 1407H714L517 1059H321L124 1407Z"  />
<glyph unicode="&#x178;" horiz-adv-x="1171" d="M498 0V670L2 1464H203L586 829L967 1464H1167L672 670V0H498ZM656 1774Q656 1819 689 1852T768 1886Q814 1886 847 1853T881 1774Q881 1725 849 1693T768 1661Q720 1661 688 1693T656 1774ZM291 1774Q291 1818 325 1852T406 1886Q452 1886 484 1853T516 1774Q516 1724 486 1693T406 1661Q356 1661 324 1693T291 1774Z"  />
<glyph unicode="&#x17D;" horiz-adv-x="1159" d="M-10 0L813 1305H145V1464H1108L293 166H1075V0H-10ZM285 1958H406L580 1731L752 1958H875L678 1610H482L285 1958Z"  />
<glyph unicode="&#x17E;" horiz-adv-x="883" d="M31 0L555 778H63V915H831L307 137H827V0H31ZM148 1407H269L443 1180L615 1407H738L541 1059H345L148 1407Z"  />
<glyph unicode="&#x192;" horiz-adv-x="1208" d="M678 805L586 25Q553 -258 486 -354T279 -451Q254 -451 226 -447T168 -436L201 -299Q222 -304 237 -306T264 -309Q378 -309 415 12L416 18L506 805H344L358 938H518L539 1102Q563 1303 628 1391T819 1479Q858 1479 897 1471T975 1446L958 1305Q918 1321 892 1328T848 1335Q786 1335 755 1281T709 1081L692 938H885L870 805H678Z"  />
<glyph unicode="&#x2C6;" horiz-adv-x="1024" d="M217 1059L414 1407H610L807 1059H684L512 1288L338 1059H217Z"  />
<glyph unicode="&#x2C7;" horiz-adv-x="1024" d="M217 1407H338L512 1180L684 1407H807L610 1059H414L217 1407Z"  />
<glyph unicode="&#x2DC;" horiz-adv-x="1024" d="M805 1337Q785 1235 735 1182T608 1128Q595 1128 578 1131T542 1139L446 1165Q433 1169 421 1171T397 1174Q366 1174 344 1157T307 1106H219Q237 1205 287 1258T412 1311Q429 1311 444 1309T471 1303L569 1274Q592 1268 603 1266T623 1264Q656 1264 679 1282T717 1337H805Z"  />
<glyph unicode="&#x2013;" horiz-adv-x="1024" d="M0 514H1024V397H0V514Z"  />
<glyph unicode="&#x2014;" horiz-adv-x="2048" d="M0 397V514H2048V397H0Z"  />
<glyph unicode="&#x2018;" horiz-adv-x="604" d="M481 1452L293 907L121 969L369 1497L481 1452Z"  />
<glyph unicode="&#x2019;" horiz-adv-x="604" d="M121 954L311 1497L481 1438L236 907L121 954Z"  />
<glyph unicode="&#x201A;" horiz-adv-x="604" d="M121 -291L311 254L481 195L236 -336L121 -291Z"  />
<glyph unicode="&#x201C;" horiz-adv-x="891" d="M807 1452L616 907L446 969L692 1497L807 1452ZM444 1452L254 907L84 969L332 1497L444 1452Z"  />
<glyph unicode="&#x201D;" horiz-adv-x="891" d="M444 954L633 1497L805 1438L557 907L444 954ZM86 954L276 1497L446 1438L201 907L86 954Z"  />
<glyph unicode="&#x201E;" horiz-adv-x="891" d="M444 -291L633 254L805 195L557 -336L444 -291ZM86 -291L276 254L446 195L201 -336L86 -291Z"  />
<glyph unicode="&#x2020;" horiz-adv-x="1075" d="M455 -446V760H90V903H455V1464H621V903H985V760H621V-446H455Z"  />
<glyph unicode="&#x2021;" horiz-adv-x="1075" d="M453 -446V57H90V207H453V891H90V1040H453V1464H623V1040H985V891H623V207H985V57H623V-446H453Z"  />
<glyph unicode="&#x2022;" horiz-adv-x="1208" d="M307 762Q307 885 394 971T604 1057Q726 1057 812 971T899 762Q899 640 812 553T602 465Q479 465 393 552T307 762Z"  />
<glyph unicode="&#x2026;" horiz-adv-x="2048" d="M221 98Q221 147 256 182T340 217Q390 217 425 183T461 98Q461 49 426 16T340 -18Q290 -18 256 15T221 98ZM903 98Q903 147 938 182T1022 217Q1072 217 1107 183T1143 98Q1143 49 1108 16T1022 -18Q972 -18 938 15T903 98ZM1587 98Q1587 147 1622 182T1706 217Q1756 217 1791 183T1827 98Q1827 49 1792 16T1706 -18Q1656 -18 1622 15T1587 98Z"  />
<glyph unicode="&#x2030;" horiz-adv-x="2224" d="M1874 63Q1947 63 1987 135T2028 340Q2028 477 1989 546T1874 616Q1801 616 1762 545T1722 340Q1722 206 1761 135T1874 63ZM2175 340Q2175 161 2096 61T1874 -39Q1733 -39 1654 60T1575 340Q1575 519 1654 619T1874 719Q2016 719 2095 619T2175 340ZM1466 340Q1466 160 1388 61T1167 -39Q1026 -39 946 61T866 340Q866 519 946 619T1167 719Q1309 719 1387 619T1466 340ZM1167 63Q1241 63 1281 135T1321 340Q1321 477 1282 546T1167 616Q1094 616 1054 545T1014 340Q1014 207 1054 135T1167 63ZM358 823Q432 823 472 895T512 1100Q512 1237 473 1307T358 1378Q285 1378 245 1306T205 1100Q205 967 245 895T358 823ZM659 1100Q659 921 580 822T358 723Q216 723 137 822T57 1100Q57 1279 137 1379T358 1479Q500 1479 579 1379T659 1100ZM272 -39L1114 1479H1237L397 -39H272Z"  />
<glyph unicode="&#x2039;" horiz-adv-x="485" d="M319 49L68 453L311 860L416 793L211 453L418 121L319 49Z"  />
<glyph unicode="&#x203A;" horiz-adv-x="485" d="M166 49L68 121L274 453L70 793L174 860L418 453L166 49Z"  />
<glyph unicode="&#x2122;" horiz-adv-x="1706" d="M948 1456L1108 1051L1257 1456H1389V922H1307V1380L1135 922H1081L901 1380V922H819V1456H948ZM694 1456V1389H522V922H428V1389H254V1456H694Z"  />

</font>
</defs>
</svg>
